<svg xmlns="http://www.w3.org/2000/svg" xmlns:xlink="http://www.w3.org/1999/xlink" viewBox="0 0 500 500"><defs><style>.cls-1,.cls-14,.cls-23,.cls-24,.cls-3,.cls-6{fill:none;}.cls-2,.cls-25{fill:#fff;}.cls-3,.cls-6{stroke:#fff;}.cls-14,.cls-23,.cls-24,.cls-3,.cls-6{stroke-miterlimit:10;}.cls-23,.cls-24,.cls-3{stroke-width:2px;}.cls-4{fill:#e1e8f6;}.cls-5{fill:#e6e8e8;}.cls-6{opacity:0.75;}.cls-7{fill:#ee5050;}.cls-8{fill:#d35050;}.cls-9{fill:url(#linear-gradient);}.cls-10{fill:#19034d;}.cls-11{fill:#ff735f;}.cls-12{fill:#f5ba00;}.cls-13{fill:#db6352;}.cls-14{stroke:#19034d;}.cls-15{fill:url(#linear-gradient-2);}.cls-16{fill:url(#linear-gradient-3);}.cls-17{fill:url(#linear-gradient-4);}.cls-18{fill:url(#linear-gradient-5);}.cls-19{fill:#0648b3;}.cls-20{opacity:0.49;fill:url(#linear-gradient-6);}.cls-21{clip-path:url(#clip-path);}.cls-22{fill:#228f4e;}.cls-23{stroke:#0648b3;}.cls-24{stroke:#e1e8f6;}.cls-25{font-size:60px;font-family:OpenSans-Bold, Open Sans;font-weight:700;}</style><linearGradient id="linear-gradient" x1="77.38" y1="306.66" x2="109.91" y2="291.77" gradientUnits="userSpaceOnUse"><stop offset="0" stop-color="#ee5050" stop-opacity="0.91"/><stop offset="0.56" stop-color="#311573" stop-opacity="0"/></linearGradient><linearGradient id="linear-gradient-2" x1="232.65" y1="322.16" x2="246.86" y2="291.19" gradientUnits="userSpaceOnUse"><stop offset="0" stop-color="#201b59" stop-opacity="0.91"/><stop offset="0.56" stop-color="#fc0" stop-opacity="0"/></linearGradient><linearGradient id="linear-gradient-3" x1="172.54" y1="266.31" x2="189.46" y2="282.58" xlink:href="#linear-gradient-2"/><linearGradient id="linear-gradient-4" x1="224.94" y1="188.66" x2="213.25" y2="202.36" gradientTransform="translate(-22.25 78.28) rotate(-12.97)" gradientUnits="userSpaceOnUse"><stop offset="0.27" stop-color="#201b59" stop-opacity="0.91"/><stop offset="0.56" stop-color="#ff735f" stop-opacity="0"/></linearGradient><linearGradient id="linear-gradient-5" x1="167.41" y1="299.53" x2="158.71" y2="281.87" gradientTransform="matrix(1, 0, 0, 1, 0, 0)" xlink:href="#linear-gradient-4"/><linearGradient id="linear-gradient-6" x1="295.35" y1="255.98" x2="220.75" y2="174.87" gradientUnits="userSpaceOnUse"><stop offset="0" stop-color="#fff"/><stop offset="0.55" stop-color="#fff" stop-opacity="0.3"/></linearGradient><clipPath id="clip-path" transform="translate(42 48)"><path class="cls-1" d="M359.11,280.29c.27-1.92.93-3.65,2.45-4.54,2.16-1.27,5.05-.21,7.57-.68,7.07-1.32,7-11.2,6.87-16.64-.09-3.46-.25-6.91-.46-10.37a5.7,5.7,0,0,0-.61-2.65,3.91,3.91,0,0,0-4.41-1.37c-3.09.88-4.83,4.23-5.38,7.4s-.28,6.47-1.11,9.58a5.67,5.67,0,0,1-.69,1.67,3.89,3.89,0,0,1-1.55,1.32,3,3,0,0,1-2.87,0c-1-.63-.82-1.42-.81-2.37a29.34,29.34,0,0,0-.29-3.47c-.3-2.6-.56-5.2-.81-7.81-.48-5.12-.9-10.25-1.43-15.37a17.62,17.62,0,0,0-1.68-6.86c-5.07-9.1-12.79-1.11-13.5,5.53-1.61,15.09,6.25,29.32,5.59,44.3a4.48,4.48,0,0,1-.35,1.85c-1.18,2.36-5,2-6.71.59-2.74-2.13-1.76-6.75-1.76-9.53,0-2.27-.73-4.83-2.93-5.89-2.48-1.21-5.73.24-7.15,2.46-1.83,2.87-1.62,7.78-1.35,11a13.56,13.56,0,0,0,2.1,6.61,8.33,8.33,0,0,0,6.15,3.63c1.46.09,3.13-.22,4.24.66,1.35,1.07.87,3,.92,4.65.1,3.24,2.87,6,6.09,7.37s6.85,1.59,10.39,1.8c3-4.82,3.2-10.37,3.36-15.76A57,57,0,0,1,359.11,280.29Z"/></clipPath></defs><title>500</title><g id="BACKGROUND"><rect class="cls-2" width="500" height="500"/></g><g id="OBJEKTS"><path class="cls-3" d="M116.7,214.63h75a23,23,0,0,1,23,23v30.87a0,0,0,0,1,0,0h-98a23,23,0,0,1-23-23v-7.85A23,23,0,0,1,116.7,214.63Z"/><path class="cls-4" d="M275.06,360.72c27.57-9.72,54.23-26.34,71.69-50.56,21.35-29.64,19.52-63.23,23.89-97.85,1.77-14.07,11.19-22.16,16.8-34.64,11.83-26.32,7.65-65.93-17.22-83.81-15.32-11-30.12-12.21-38.36-31.36-4.56-10.59-7.23-22.25-14.31-31.34C307.3,18,289.89,12.81,273.4,10.21c-19.17-3-37.9-2.35-57.14-2.93-20.5-.6-41.29,0-61.2,5.39-27,7.39-56.69,26.73-61.41,56.18-2,12.62.63,26.09-4.17,37.94-7.21,17.84-26.43,23.89-40.75,34.42-15.37,11.31-25.36,29-29.75,47.33-7.47,31.27-2,66,12.59,94.37,15.57,30.39,40.86,56.26,71.54,71.47,24,11.91,57.23,15.42,84.33,17.09C217.05,373.3,247.2,370.55,275.06,360.72Z" transform="translate(42 48)"/><path class="cls-5" d="M345.6,238.61c-.18-44.68-12.54-87.59-48.89-116.38-44.86-35.53-107.57-35.07-153.42-1.92-30,21.67-51,54.28-62.8,89.35S65.65,282.24,66.91,319.22l273,.85,3.42-37.64C344.64,268,345.65,253.31,345.6,238.61Z" transform="translate(42 48)"/><path class="cls-6" d="M131.7,209.63h75a23,23,0,0,1,23,23v30.87a0,0,0,0,1,0,0h-98a23,23,0,0,1-23-23v-7.85A23,23,0,0,1,131.7,209.63Z"/><path class="cls-6" d="M193.49,103.38H298.18a30.45,30.45,0,0,1,30.45,30.45v40.83a0,0,0,0,1,0,0H193.49A30.45,30.45,0,0,1,163,144.21V133.83A30.45,30.45,0,0,1,193.49,103.38Z"/><path class="cls-7" d="M113.38,312.08a12.43,12.43,0,0,0-1.16-.86c-1.41-1.12-1.7-3.12-1.85-4.92-1.81-22,1.49-44.15.45-66.21-.25-5.26-4.52-2.68-8-2-.52.1-7.35,1.38-7.28.61-.61,6.26-1.41,13-5.56,17.71-2.87,3.28-7,5.15-10.59,7.6-13.55,9.21-21.47,26.93-23.44,42.92,0-.35-.07-.71-.1-1.06q-.41-4.78-.64-9.57-.5-10.07-.28-20.15c.11-5,.71-10.46-2.3-14.8-2.55-3.69-5.4-4-9-4.28-1-2-.81-5.92-.8-7.69,0-2.85.5-6.11,2.58-8.28,3.42-3.59,8.74-1.4,13.07-2.48,9.82-2.46,6.32-15,5.67-22.21-.41-4.45-7.41-4.49-7,0,.32,3.62,1,7.39,1,11,0,2.33,0,3.84-2.44,4.56a12.75,12.75,0,0,1-3.38,0c-5.11,0-9.47,1.1-12.75,5.25C36,241.71,35.42,247.49,36,253c.44,4.16.62,10,5.71,10.89,4.72.82,6.2,1.76,6.32,6.84.08,3.39-.17,6.81-.18,10.21q-.06,11.52.83,23c.33,4.37-.41,12.34,3.3,15.59a5.16,5.16,0,0,0,5.89.83c5.82.32,19.59-.5,21.06-.5H96.7c3,0,8.22,1,11.07-.45,1.54-.8,4.29-2.25,5.41-3.55A2.92,2.92,0,0,0,113.38,312.08Z" transform="translate(42 48)"/><path class="cls-8" d="M111,246.53c0-1.8,0-3.6-.14-5.39,0-.35,0-.7-.11-1a3.93,3.93,0,0,0-.34-1.07c-1.29-2.52-5.88-.34-7.69.55a34.45,34.45,0,0,0-5.61,3.59,8.41,8.41,0,0,0-2.74,2.89c-.59,1.27-.25,3.31-.12,4.66a5.49,5.49,0,0,0,.89,2.93,2.2,2.2,0,0,0,2.74.71,9.54,9.54,0,0,0,.93,3.16,3.3,3.3,0,0,0,2,1.54c.56.16.53.06.73.65,0,0,0,0,0,.05a5,5,0,0,0,.54,1.3l0,.08a2.63,2.63,0,0,0,.56.79,1.83,1.83,0,0,0,.46.28h0a2.48,2.48,0,0,0,1.1.37,2.71,2.71,0,0,0,2.64-1.11,5.27,5.27,0,0,0,.41-3.19,2,2,0,0,0,1.83-1.26,7.34,7.34,0,0,0,.3-2.8c0-1.07,0-2.15-.11-3.22C111.44,251.24,111,248,111,246.53Z" transform="translate(42 48)"/><path class="cls-9" d="M87.93,282.33a11.39,11.39,0,0,1,5.43,10.56c-.44,4.32-3.86,7.78-7,10.43s-7,5.34-9.12,9.11a65.39,65.39,0,0,1,6.55-.5c1.87-.06,4,.12,5.14,1.64s.51,3.8.81,5.74a.5.5,0,0,0,.66-.14c.15.51.1.54.62.5a5.29,5.29,0,0,0,4.05-3,14.88,14.88,0,0,0,1.26-5.08A102,102,0,0,0,97,292.77,12.69,12.69,0,0,0,95.66,287C94,284.18,91.25,282.06,87.93,282.33Z" transform="translate(42 48)"/><path class="cls-7" d="M79.17,224.23c-.08-.31-.17-.62-.26-.94,0,.15.84.45,1,.54l1.07.58c.71.4,1.42.8,2.12,1.21s1.4.84,2.09,1.27c.31.2.47.37.83.31a7.58,7.58,0,0,0,1.5-.57l1.81-.72,3.61-1.43c2.39-.94,4.77-1.9,7.12-2.91.91-.4,3-.92,3.32-1.92a3.79,3.79,0,0,0,.15-1.12c.1-1.91.47-5.53.47-5.53s1.43,1.22,1.65,1.49c.53.62,1,1.25,1.5,1.91a38.25,38.25,0,0,1,2.61,4,62.26,62.26,0,0,1,4.2,9.31c.92,2.59,1.38,5.17-.35,7.5-1.6,2.17-4.15,3.54-6.5,4.75-4.77,2.46-9.88,5.21-15.3,5.73a7.28,7.28,0,0,1-4-.53A7.05,7.05,0,0,1,85,244.15C81.69,237.92,81,230.93,79.17,224.23Z" transform="translate(42 48)"/><path class="cls-10" d="M105.86,238c-1.58-.52-3.24-.63-4.83-1.09.11-.16.2-.34.29-.49.24-.42.47-.85.69-1.27a.51.51,0,0,0-.3-.74c-.52-.2-1.39.28-1.89.46a11.83,11.83,0,0,0-2.2,1,.5.5,0,0,0,.12.91l2,.64A46.37,46.37,0,0,0,98,242.61a.5.5,0,0,0,1,.26,48.57,48.57,0,0,1,1.7-5c1.62.48,3.33.58,4.95,1.11C106.21,239.16,106.47,238.2,105.86,238Z" transform="translate(42 48)"/><path class="cls-10" d="M92.15,233.8a.88.88,0,0,0-.64,0,.38.38,0,0,0-.36.17,1.07,1.07,0,0,0-.21.41,1.35,1.35,0,0,0-.08.24.47.47,0,0,0,.1.42.93.93,0,0,0,1.69.11A.92.92,0,0,0,92.15,233.8Z" transform="translate(42 48)"/><path class="cls-10" d="M107.15,227.8a.88.88,0,0,0-.64,0,.38.38,0,0,0-.36.17,1.07,1.07,0,0,0-.21.41,1.35,1.35,0,0,0-.08.24.47.47,0,0,0,.1.42.93.93,0,0,0,1.69.11A.92.92,0,0,0,107.15,227.8Z" transform="translate(42 48)"/><path class="cls-11" d="M133,292.68c-1.9,6.52-3.54,14.08.31,19.68,4.64,6.75,15.28,6.67,22,1.95s10.31-12.58,13.4-20.16c5.22-12.77,9.81-25.92,11.63-39.59,1.06-8,.13-17.92-7.12-21.43-11.17-5.41-20.69,3.21-24.3,12.65C143,261.21,137.66,276.82,133,292.68Z" transform="translate(42 48)"/><path class="cls-12" d="M166.92,210.24a68.32,68.32,0,0,0-7.7,9.91c-3.15,4.9-5.26,10.14-7.73,15.37-.86,1.83-8.12,17.75-6.5,18.91,9.12,6.53,18.09,13.65,28.55,17.66.35.14-1.65,7.8-1.83,8.53-.71,2.84-1.36,5.69-1.93,8.55-1.15,5.69-2.05,11.47-3.05,17.19-.55,3.19-1.1,6.39-1.63,9.58-.24,1.43,45.21,4.46,49.32,4.52,12,.18,30.91,3.55,38.21-8.72A33.16,33.16,0,0,0,256,302.2a236,236,0,0,0,6-59,63,63,0,0,0-1.49-13.85c-1.65-6.57-5.09-12.47-8.7-18.13-3.29-5.17-8.47-8-14-10.66-16.55-7.91-36.46-10.46-53.25-3.06A54.48,54.48,0,0,0,166.92,210.24Z" transform="translate(42 48)"/><path class="cls-11" d="M242.45,257c-.46,1.05-.91,2.1-1.36,3.15-1.75,4-6.13,11-6.13,15.43-2.05,6.41-3,13.27-1.84,19.89a54.1,54.1,0,0,0,2.17,7.78,32.26,32.26,0,0,0,4.34,9.16c1.83,2.44,6.21,6.3,9.6,5s6.17-7.79,7.52-11c8-18.83,11.19-39.52,13.14-59.78a10.49,10.49,0,0,0-3.15-9.74c-1.75-2.19-3.79-4.48-6.55-5s-5.35.9-7.17,2.88a24.21,24.21,0,0,0-4,7Z" transform="translate(42 48)"/><path class="cls-12" d="M257,254.88c-1.55-.43-23.1-5.67-23.15-3q.24-17.56,1.94-35.06a38.54,38.54,0,0,1,2.2-10.93c1.41-3.45,3.95-6.61,7.44-7.94a14.53,14.53,0,0,1,8.14-.3,23.87,23.87,0,0,1,17.7,17.2,43.8,43.8,0,0,1,.88,11.09c-.1,11-.92,22-1.57,33C265.93,258.86,261.4,256.12,257,254.88Z" transform="translate(42 48)"/><path class="cls-13" d="M267.92,195.52a14.24,14.24,0,0,1,.56,3.06c.45,7-4.16,12.89-8.8,17.63-1.81,1.86-4.37,3.14-6,5.08-1.87,2.2-1.79,5.84-5,6.83a4,4,0,0,1-4.57-5.6,29.71,29.71,0,0,1,2.45-5.94c.9-1.35,2.72-2.24,4.07-3a11.47,11.47,0,0,0,5.32-7.85c.85-5.91,0-12.58,2.05-18.22a6.21,6.21,0,0,1,1.61-2.63,3,3,0,0,1,2.89-.72c1.44.5,2,2.19,2.51,3.63C265.86,190.36,267.18,192.88,267.92,195.52Z" transform="translate(42 48)"/><path class="cls-13" d="M260.22,269.78c.67,12.63.52,25.5-2.92,37.76-1,3.66-2.72,8.9-6.26,10.95-4,2.3-10.28.44-14-1.68a18.24,18.24,0,0,1-6.35-5.5c-2.45-3.73-2.58-8.49-2.29-12.95.76-12,3.73-23.13,6.05-34.8q3.78-19.06,8.86-37.86c1.44-5.35,3.3-9.33,7.77-12.7,3.19-2.4,8.54-5.58,8.84.67C260.81,232.33,259.22,251,260.22,269.78Z" transform="translate(42 48)"/><path class="cls-11" d="M209.75,205.79a7.52,7.52,0,0,0-.89,2.11,8.79,8.79,0,0,0,0,2.94c.91,7.31,2.44,14.53,10.27,16.82A22.29,22.29,0,0,0,235.5,226a17.58,17.58,0,0,0,4.23-3.06,7.28,7.28,0,0,0,2.13-4.67c5.26,1.16,10.7-4.2,13.43-8,6.28-8.81,8.36-19.87,7.4-30.52-.23-2.61-.63-5.35-2.21-7.45a15.46,15.46,0,0,0-4.22-3.48c-7.2-4.6-14.87-4.85-22.73-1.22-7.14,3.3-12.1,10.36-15.46,17.22-1.4,2.87-1.64,6.65-2.77,9.73a58.66,58.66,0,0,1-5,10.35Z" transform="translate(42 48)"/><path class="cls-10" d="M219.69,168.77a21.89,21.89,0,0,1,6.95-9c5.4-3.75,13.22-3.05,19.31-1.69,3.5.79,7,2.31,10.65,2.27,3.28,0,6.68-3.31,9.87-2.21a4.48,4.48,0,0,1,2.84,3.2c.54,2.39-.95,4.7-2.1,6.87a35.39,35.39,0,0,1-2.84,5.07,10.17,10.17,0,0,1-6.54,4,11.89,11.89,0,0,1-2.6-.08c-5.17-.54-9.51-2-13.46,2.1-2.69,2.78-4,6.59-6,9.85a5.87,5.87,0,0,1-1.82,2.07,11.74,11.74,0,0,1-3.55.91c-5.13,1.19-8.51,9.78-13.93,7.93-4.64-1.58-3.58-5.8-1.75-9.14,2.28-4.16,1.85-9.21,2.54-13.9A31.49,31.49,0,0,1,219.69,168.77Z" transform="translate(42 48)"/><path class="cls-11" d="M221,188.64a12.77,12.77,0,0,0-2.21,5.44,10.36,10.36,0,0,0,0,5,4.7,4.7,0,0,0,3.49,3.36,4.63,4.63,0,0,0,3.68-1.21c2.39-2.09,5.2-8.51,4.51-11.79C229.48,184.8,223.33,185.61,221,188.64Z" transform="translate(42 48)"/><path class="cls-14" d="M225.7,190.36a5.34,5.34,0,0,0-2.95,2.88,16.31,16.31,0,0,0-1.1,4.08" transform="translate(42 48)"/><path class="cls-10" d="M259.65,191.33a1.18,1.18,0,0,1-.88,1.41,1.17,1.17,0,0,1-1.4-.88,1.16,1.16,0,0,1,.87-1.4A1.17,1.17,0,0,1,259.65,191.33Z" transform="translate(42 48)"/><path class="cls-10" d="M246.52,192.35a1.17,1.17,0,0,1-1,1.35,1.17,1.17,0,0,1-.39-2.31A1.17,1.17,0,0,1,246.52,192.35Z" transform="translate(42 48)"/><path class="cls-15" d="M229.53,288.54c-.51,3.25-.91,6.53-1.12,9.82-.29,4.46-.16,9.22,2.29,12.95a18.24,18.24,0,0,0,6.35,5.5c3.71,2.12,10,4,14,1.68,3.54-2.05,5.24-7.29,6.26-10.95a89.46,89.46,0,0,0,3-19Z" transform="translate(42 48)"/><path class="cls-16" d="M193.61,269.13l-5.46-15.58c.13.38-1,2.12-1.17,2.53-.41.9-.82,1.8-1.22,2.7-.84,1.85-1.68,3.7-2.54,5.54A101.6,101.6,0,0,1,178,274.68a14.46,14.46,0,0,1-4.39-2.36c-.54,3.16-1.53,6.12-2.16,9.26-.33,1.63-.63,3.26-.93,4.9-.15.82-.31,1.65-.47,2.48-.06.34-.18,2.11-.45,2.26a105,105,0,0,0,23.15-18.33,3.84,3.84,0,0,0,1.22-2A3.9,3.9,0,0,0,193.61,269.13Z" transform="translate(42 48)"/><path class="cls-10" d="M260.47,185a6.6,6.6,0,0,0-4.59,1.06,1.45,1.45,0,0,0-.57,1.91,1.43,1.43,0,0,0,1.91.57,4.25,4.25,0,0,1,3.13-.73,1.41,1.41,0,0,0,.12-2.81Z" transform="translate(42 48)"/><path class="cls-10" d="M249.11,187.17c-2-.9-4.06-.51-6.06,0-1.53.42-1.16,2.9.4,2.47s3.19-.9,4.73-.19S250.56,187.84,249.11,187.17Z" transform="translate(42 48)"/><path class="cls-17" d="M231.47,213.88c-.11,2.61-.21,5.23-.29,7.84,0,1.36-.07,2.73-.09,4.09,0,.25-.07.71-.09,1.19a25.81,25.81,0,0,0,4.73-1.35,10.18,10.18,0,0,0,5.26-4.47,14.69,14.69,0,0,0,.91-2.64C238.31,217.81,234.18,216.44,231.47,213.88Z" transform="translate(42 48)"/><path class="cls-11" d="M204,319.84c13.54,1.61,28.47,3.37,41.49-.47a52.5,52.5,0,0,0-6.94-8.56,17.73,17.73,0,0,0-9.67-4.94,23.5,23.5,0,0,0-5.8.17c-3.37.41-7.74,2.17-11.06,1.89-2.83-.23-6.51-2.65-9.18-3.71-18.13-7.17-39.64-16.94-59.46-11.73-10,2.64-16,11-9.14,20.43,3.86,5.27,10.1,4.29,16.18,4.39,16.42.27,32.9.14,49.24,2Z" transform="translate(42 48)"/><path class="cls-10" d="M244.87,207.78l-1-.25a13.42,13.42,0,0,1,2.26-5,7.2,7.2,0,0,1,4.76-2.86,4.17,4.17,0,0,1,1.72.13,4.38,4.38,0,0,1,2.52,2.39l-.9.42a3.37,3.37,0,0,0-1.91-1.85,3.29,3.29,0,0,0-1.32-.1,6.17,6.17,0,0,0-4.08,2.49A12.15,12.15,0,0,0,244.87,207.78Z" transform="translate(42 48)"/><path class="cls-18" d="M170,286.54c-.14-.23-.27-.46-.4-.69q-1.41-2.33-2.68-4.73a29,29,0,0,1-3.95,3.46,34.7,34.7,0,0,0-5.18,4.5c-1,1-1.91,2.06-2.84,3.12.25.57.48,1.14.72,1.73.12.28.25.56.37.85.63-.21,1.26-.41,1.9-.6,3.22-.93,7.46-2.21,11-1.7.19-2,.95-3.81,1.1-5.76A1.42,1.42,0,0,0,170,286.54Z" transform="translate(42 48)"/><path class="cls-13" d="M248.85,211.77a2.07,2.07,0,0,0-1.68.91.67.67,0,0,0,.09.78.49.49,0,0,0,.39.41,1.71,1.71,0,0,0,1.78-.73A.8.8,0,0,0,248.85,211.77Z" transform="translate(42 48)"/><path class="cls-13" d="M249.87,184.22a8.29,8.29,0,0,0-2.24-.57c-.64-.07-.64.93,0,1a7.46,7.46,0,0,1,2,.53C250.2,185.43,250.46,184.46,249.87,184.22Z" transform="translate(42 48)"/><path class="cls-13" d="M256.08,182.77l-1.57.49c-.61.19-.35,1.15.27,1l1.57-.49C257,183.54,256.7,182.58,256.08,182.77Z" transform="translate(42 48)"/><path class="cls-19" d="M183.49,91.38H288.18a30.45,30.45,0,0,1,30.45,30.45v40.83a0,0,0,0,1,0,0H183.49A30.45,30.45,0,0,1,153,132.21V121.83a30.45,30.45,0,0,1,30.45-30.45Z"/><path class="cls-2" d="M143.7,179.63h75a23,23,0,0,1,23,23v30.87a0,0,0,0,1,0,0h-98a23,23,0,0,1-23-23v-7.85A23,23,0,0,1,143.7,179.63Z"/><path class="cls-19" d="M116.79,164.46a5.29,5.29,0,0,1-3.89-1.37,5.2,5.2,0,0,1-1.4-3.9,5.75,5.75,0,0,1,1.29-4,4.64,4.64,0,0,1,3.59-1.41,4.52,4.52,0,0,1,3.4,1.24,4.68,4.68,0,0,1,1.22,3.44v1.37h-6.65a2.69,2.69,0,0,0,.71,1.87,2.49,2.49,0,0,0,1.86.68,7.8,7.8,0,0,0,1.77-.2,8.37,8.37,0,0,0,1.73-.61v2.17a6.43,6.43,0,0,1-1.58.55A9.93,9.93,0,0,1,116.79,164.46Zm-.39-8.69a1.79,1.79,0,0,0-1.41.57,2.65,2.65,0,0,0-.58,1.61h4a2.31,2.31,0,0,0-.54-1.61A1.85,1.85,0,0,0,116.4,155.77Z" transform="translate(42 48)"/><path class="cls-19" d="M130.94,153.77a4.26,4.26,0,0,1,.95.08l-.21,2.64a3.29,3.29,0,0,0-.83-.09,3,3,0,0,0-2.1.69A2.51,2.51,0,0,0,128,159v5.25h-2.82V154h2.14l.41,1.73h.14a3.85,3.85,0,0,1,1.3-1.39A3.12,3.12,0,0,1,130.94,153.77Z" transform="translate(42 48)"/><path class="cls-19" d="M141.42,153.77a4.26,4.26,0,0,1,1,.08l-.21,2.64a3.34,3.34,0,0,0-.83-.09,3,3,0,0,0-2.1.69,2.48,2.48,0,0,0-.76,1.94v5.25h-2.81V154h2.13l.42,1.73h.13a3.94,3.94,0,0,1,1.3-1.39A3.17,3.17,0,0,1,141.42,153.77Z" transform="translate(42 48)"/><path class="cls-19" d="M155.51,159.1a5.53,5.53,0,0,1-1.33,3.94,4.8,4.8,0,0,1-3.7,1.42,5.12,5.12,0,0,1-2.62-.65,4.29,4.29,0,0,1-1.75-1.87,6.35,6.35,0,0,1-.6-2.84,5.49,5.49,0,0,1,1.32-3.93,4.82,4.82,0,0,1,3.71-1.4,5.22,5.22,0,0,1,2.62.64,4.29,4.29,0,0,1,1.74,1.86A6.15,6.15,0,0,1,155.51,159.1Zm-7.13,0a4.32,4.32,0,0,0,.5,2.32,1.8,1.8,0,0,0,1.64.78,1.77,1.77,0,0,0,1.62-.78,4.38,4.38,0,0,0,.49-2.32,4.2,4.2,0,0,0-.5-2.3,1.79,1.79,0,0,0-1.63-.76,1.81,1.81,0,0,0-1.63.76A4.28,4.28,0,0,0,148.38,159.1Z" transform="translate(42 48)"/><path class="cls-19" d="M165.49,153.77a4.26,4.26,0,0,1,.95.08l-.21,2.64a3.34,3.34,0,0,0-.83-.09,3,3,0,0,0-2.1.69,2.48,2.48,0,0,0-.76,1.94v5.25h-2.81V154h2.13l.42,1.73h.13a3.94,3.94,0,0,1,1.3-1.39A3.17,3.17,0,0,1,165.49,153.77Z" transform="translate(42 48)"/><path class="cls-20" d="M312.05,295.57l-25.9-96.64a31.67,31.67,0,0,0-29.89-23.45h0c-26.71-.58-42.07,30.15-25.59,51.17,27.08,34.55,57,73.35,57,73.35Z" transform="translate(42 48)"/><path class="cls-19" d="M143.8,306.89a18.93,18.93,0,0,1-3.84-.38l.44-2.09c4.37.91,11.51,0,13.53-4.2a4.72,4.72,0,0,0,0-4.13,5,5,0,0,0-3.12-2.6c-2.71-.83-6.24.11-8.53,1.4L141.2,293c2.49-1.4,6.66-2.66,10.21-1.58a7.17,7.17,0,0,1,4.41,3.68,7,7,0,0,1,0,6C153.82,305.35,148.45,306.89,143.8,306.89Z" transform="translate(42 48)"/><path class="cls-19" d="M154.54,334.24h34.8a0,0,0,0,1,0,0V348.4a13.69,13.69,0,0,1-13.69,13.69h-7.42a13.69,13.69,0,0,1-13.69-13.69V334.24A0,0,0,0,1,154.54,334.24Z"/><path class="cls-2" d="M157,316.23H103.43a1.61,1.61,0,0,1-1.6-1.61h0a1.6,1.6,0,0,1,1.6-1.6H157a1.6,1.6,0,0,1,1.61,1.6h0A1.61,1.61,0,0,1,157,316.23Z" transform="translate(42 48)"/><g class="cls-21"><path class="cls-22" d="M359.11,280.29c.27-1.92.93-3.65,2.45-4.54,2.16-1.27,5.05-.21,7.57-.68,7.07-1.32,7-11.2,6.87-16.64-.09-3.46-.25-6.91-.46-10.37a5.7,5.7,0,0,0-.61-2.65,3.91,3.91,0,0,0-4.41-1.37c-3.09.88-4.83,4.23-5.38,7.4s-.28,6.47-1.11,9.58a5.67,5.67,0,0,1-.69,1.67,3.89,3.89,0,0,1-1.55,1.32,3,3,0,0,1-2.87,0c-1-.63-.82-1.42-.81-2.37a29.34,29.34,0,0,0-.29-3.47c-.3-2.6-.56-5.2-.81-7.81-.48-5.12-.9-10.25-1.43-15.37a17.62,17.62,0,0,0-1.68-6.86c-5.07-9.1-12.79-1.11-13.5,5.53-1.61,15.09,6.25,29.32,5.59,44.3a4.48,4.48,0,0,1-.35,1.85c-1.18,2.36-5,2-6.71.59-2.74-2.13-1.76-6.75-1.76-9.53,0-2.27-.73-4.83-2.93-5.89-2.48-1.21-5.73.24-7.15,2.46-1.83,2.87-1.62,7.78-1.35,11a13.56,13.56,0,0,0,2.1,6.61,8.33,8.33,0,0,0,6.15,3.63c1.46.09,3.13-.22,4.24.66,1.35,1.07.87,3,.92,4.65.1,3.24,2.87,6,6.09,7.37s6.85,1.59,10.39,1.8c3-4.82,3.2-10.37,3.36-15.76A57,57,0,0,1,359.11,280.29Z" transform="translate(42 48)"/><path class="cls-14" d="M349.57,224.55c3.61,25,6.72,50.5,2.28,75.42" transform="translate(42 48)"/><path class="cls-14" d="M346.11,224.38c-1,4.66-2,9.36-2,14.11.05,9.06,3.86,17.73,5.36,26.69,1.68,10,.44,20.21-.8,30.27" transform="translate(42 48)"/><path class="cls-14" d="M353.93,268.56c4.36-.62,9.56-1.25,12.32-4.74a5.09,5.09,0,0,0,.91-1.64c.73-2.36.37-5.05.36-7.48s0-6.43,0-9.45" transform="translate(42 48)"/><path class="cls-14" d="M350,285.18c-3.92.64-8.25,1.21-11.63-.71a9.71,9.71,0,0,1-4.2-5.28,19.67,19.67,0,0,1-.87-6.6,45.17,45.17,0,0,1,.62-7.24" transform="translate(42 48)"/><path class="cls-14" d="M354,272.56a71.22,71.22,0,0,0,14.52-3.75,7.48,7.48,0,0,0,2.71-1.5,6.29,6.29,0,0,0,1.43-2.8c.69-2.26,1-17.75.22-21.53" transform="translate(42 48)"/></g><polygon class="cls-12" points="377.43 342.79 406.75 342.17 403.76 364 381.38 363.99 377.43 342.79"/><rect class="cls-2" x="243.72" y="359.59" width="128.74" height="5.85" rx="2.5"/><path class="cls-2" d="M330.87,317.44h-110l9.57-63.22a4.48,4.48,0,0,1,4.36-3.83h101.3a4.29,4.29,0,0,1,4.18,5Z" transform="translate(42 48)"/><circle class="cls-23" cx="327.9" cy="327.4" r="5.27"/><path class="cls-3" d="M291.34,245.5a39.11,39.11,0,0,1-1-8.83c0-2.9.45-5,2.36-7.19a40.12,40.12,0,0,1,4.69-4.62,13.41,13.41,0,0,0,3.95-15.12" transform="translate(42 48)"/><path class="cls-3" d="M300.57,237c-.58-2.49.79-5,2.53-6.9s3.88-3.36,5.39-5.42c3.24-4.4,3.08-8.55,2.49-16.72-.42-5.76-.31-12.28,3.84-16.28" transform="translate(42 48)"/><rect class="cls-19" x="86.89" y="363.27" width="325.37" height="7.02" rx="3"/><path class="cls-24" d="M400,133.7c2.47,15.67,3.48,32.5-3.7,46.65-4,7.89-10.31,14.43-13.89,22.56-3.82,8.67-5.17,17.67-6.12,27.07" transform="translate(42 48)"/><path class="cls-24" d="M76.29,107.46c-10,12.06-24.83,18.9-36.83,29A86.51,86.51,0,0,0,9.05,203.35" transform="translate(42 48)"/><path class="cls-24" d="M295.26,7.35a62,62,0,0,1,37.22,33" transform="translate(42 48)"/><path class="cls-24" d="M67.69,341.79a135,135,0,0,0,79.84,33" transform="translate(42 48)"/><path class="cls-24" d="M287.11,347.58a170.18,170.18,0,0,0,15.68-8" transform="translate(42 48)"/><path class="cls-24" d="M214.13,362.29c21.27-.93,39.73-2,62.66-11" transform="translate(42 48)"/><text class="cls-25" transform="translate(187.54 148.29)">500</text></g></svg>