<svg id="Layer_1" data-name="Layer 1" xmlns="http://www.w3.org/2000/svg" xmlns:xlink="http://www.w3.org/1999/xlink" viewBox="0 0 627.1 508.19"><defs><clipPath id="clip-path" transform="translate(-5.7 -6)"><path d="M417.3,273.3a3,3,0,0,0-3.2,2.8,3.61,3.61,0,0,0,.6,2,19.83,19.83,0,0,1,4.5,13.8c-.8,11.7-12.3,20.4-25.6,19.5s-23.5-11.2-22.6-22.9a19.77,19.77,0,0,1,6.4-13,2.9,2.9,0,0,0,0-4.2,3.38,3.38,0,0,0-1.9-.9l-32.4-2.3A12.23,12.23,0,0,0,330,279.5h0l-2.2,31.4a3,3,0,0,0,2.8,3.2,4.14,4.14,0,0,0,1.9-.5,20.1,20.1,0,0,1,12.6-3.7c11.7.8,20.4,12.3,19.5,25.6s-11.2,23.5-22.9,22.6a18.76,18.76,0,0,1-12-5.4,3,3,0,0,0-4.2.2,3.81,3.81,0,0,0-.8,1.7l-2.2,31.3A12.23,12.23,0,0,0,333.9,399h0l106.5,7.5a12.23,12.23,0,0,0,13.1-11.4h0L461,288.6a12.23,12.23,0,0,0-11.4-13.1Z" fill="none"/></clipPath><clipPath id="clip-path-2" transform="translate(-5.7 -6)"><path d="M287.8,222.4c-11.7-1.5-19.7-13.4-18.1-26.7s12.5-22.8,24.1-21.4a19.16,19.16,0,0,1,12.3,6.7,3,3,0,0,0,4.2.2,3.1,3.1,0,0,0,.9-1.8l4-31.8a12.2,12.2,0,0,0-10.6-13.7h0L198.7,120.6A12.27,12.27,0,0,0,185,131.3L171.7,237.2a12.27,12.27,0,0,0,10.7,13.7h0l32.4,4.1a3,3,0,0,0,3.3-2.7,2.88,2.88,0,0,0-.5-2,19.7,19.7,0,0,1-3.9-14.2c1.5-11.6,13.4-19.7,26.6-18s22.8,12.4,21.3,24.1a20.27,20.27,0,0,1-7.2,12.8,2.91,2.91,0,0,0-.3,4.2,2.75,2.75,0,0,0,1.9,1l32.4,4.1a12.2,12.2,0,0,0,13.7-10.6h0l4-31.8a3,3,0,0,0-2.7-3.3,2.88,2.88,0,0,0-2,.5A19.73,19.73,0,0,1,287.8,222.4Z" fill="none"/></clipPath><clipPath id="clip-path-3" transform="translate(-5.7 -6)"><path d="M441.9,127.1,335.1,126a12.27,12.27,0,0,0-12.4,12.1l-.3,31.6a3,3,0,0,1-4.9,2.2,19.3,19.3,0,0,0-12.5-4.8c-11.7-.1-21.4,10.6-21.5,24s9.2,24.3,21,24.4a19.37,19.37,0,0,0,12.6-4.6,2.94,2.94,0,0,1,4.8,2.3l-.3,31.6a12.29,12.29,0,0,0,12.2,12.4l32.6.3a2.89,2.89,0,0,1,2.9,3.1,3.18,3.18,0,0,1-.8,2,19.85,19.85,0,0,0-5.8,13.6c-.1,11.7,10.6,21.4,24,21.5s24.3-9.3,24.4-21a19.22,19.22,0,0,0-5.6-13.6,3,3,0,0,1,2.2-5l32.6.3a12.29,12.29,0,0,0,12.4-12.2h0l1.1-106.7A12,12,0,0,0,441.9,127.1Z" fill="none"/></clipPath><clipPath id="clip-path-4" transform="translate(-5.7 -6)"><path d="M323.9,308.7a19.16,19.16,0,0,0-12.6,5.7,3,3,0,0,1-4.2-.2,3.7,3.7,0,0,1-.8-1.8l-1.8-31.9a12.28,12.28,0,0,0-12.9-11.6h-.1L259,270.7a3,3,0,0,1-3.1-2.9,3.06,3.06,0,0,1,.7-2,19.93,19.93,0,0,0,4.8-13.8c-.6-11.7-12-20.6-25.3-19.9s-23.6,10.9-23,22.6a19.68,19.68,0,0,0,6.3,13.2,2.9,2.9,0,0,1,0,4.2,3.38,3.38,0,0,1-1.9.9L185,274.8a12.28,12.28,0,0,0-11.6,12.9v.1l6,106.6A12.28,12.28,0,0,0,192.3,406h.1L299,400a12.31,12.31,0,0,0,11.6-13h0l-1.8-31.9a2.89,2.89,0,0,1,2.9-3.1,3.08,3.08,0,0,1,1.9.6,19.62,19.62,0,0,0,13.2,4.3c11.7-.6,20.6-12,19.9-25.3S335.6,308.1,323.9,308.7Z" fill="none"/></clipPath></defs><g id="Screen"><g opacity="0.45"><path d="M5.7,108H78.6c11.4,0,15-.4,26.4,0,.1-7-1.8-13.7-5.2-17.2a12.46,12.46,0,0,0-11.4-3.5c-4.9,1.3-8.2,4.6-11.4,7-1.1-9.7-5.1-18.5-9.4-20.5-7.4-3.3-15.2,1.9-18.6,7.1a31.87,31.87,0,0,0-5,14.3c-4.7-5.1-15.1-9.1-18.8-.9-1.5,3.2-1.4,6.9-1.2,10.4A22.18,22.18,0,0,0,5.7,108Z" transform="translate(-5.7 -6)" fill="#d2def9"/></g><g opacity="0.45"><path d="M540.8,45.2c-1.4-5.7-14.6-14-21.7-9-2.2-10.8-4.2-17.6-11.3-22.9S488.9,14.9,487,29.5c-1.9-6-11.6-14.1-19.3-7.3-7.2,6.3-7.9,16.9-7.1,22.9Z" transform="translate(-5.7 -6)" fill="#d2def9"/></g><g opacity="0.45"><path d="M632.8,120.9c-2.2-5.4-6.3-8.3-11.2-8.8-6.2-.7-12.4,2.8-12.4,2.8s2.3-8.9-.8-15.9c-2.2-4.8-5.6-9.3-10.3-10.4-4.9-1.2-10.1,1.2-13.8,5s-6,8.8-8.1,13.8c-1.1-3.6-2.5-7.5-5.7-8.8s-7.2,1-8.9,4.4-1.8,7.5-1.6,11.3c-3.8-2.3-8.8-3-12.6-.7a10.38,10.38,0,0,0-4.6,7.4Z" transform="translate(-5.7 -6)" fill="#d2def9"/></g><path d="M187.1,242.6c-20.2-6.9-37.8-20.4-50.9-37.3s-27.9-53.7-25.4-84.9c58.2,17.2,81.8,71.3,85.3,104" transform="translate(-5.7 -6)" fill="#d2def9"/><path d="M110.8,120.4s9.6,75,76.8,116.4" transform="translate(-5.7 -6)" fill="none" stroke="#fff" stroke-miterlimit="10" stroke-width="1.5"/><path d="M110.8,120.4s39.7,71.1,83.2,114.4" transform="translate(-5.7 -6)" fill="none" stroke="#fff" stroke-miterlimit="10" stroke-width="1.5"/><path d="M110.8,120.4s58.6,46.5,85.9,110.2" transform="translate(-5.7 -6)" fill="none" stroke="#fff" stroke-miterlimit="10" stroke-width="1.5"/><path d="M187.3,366.4c-23,8.6-48.4,8.8-72,2.6s-62.8-30.6-82.4-62.4c56.2-19.1,123.6,6.9,149.8,35.7" transform="translate(-5.7 -6)" fill="#d2def9"/><path d="M33,306.6s61.2,64.8,150.8,53.9" transform="translate(-5.7 -6)" fill="none" stroke="#fff" stroke-linejoin="round" stroke-width="1.5"/><path d="M33,306.6s85.6,38.4,155.1,47.2" transform="translate(-5.7 -6)" fill="none" stroke="#fff" stroke-linejoin="round" stroke-width="1.5"/><path d="M33,306.6s85.3.5,154.6,41.2" transform="translate(-5.7 -6)" fill="none" stroke="#fff" stroke-linejoin="round" stroke-width="1.5"/><path d="M208.9,208.7c-19.5-14.5-33.3-35.3-40.8-58.3s-8.4-68.5,7.4-101.9c46.1,36.3,60.8,106.2,51,143.4" transform="translate(-5.7 -6)" fill="#e9f1ff"/><path d="M175.5,48.5s-20.8,85.6,36.4,154" transform="translate(-5.7 -6)" fill="none" stroke="#fff" stroke-linejoin="round" stroke-width="1.5"/><path d="M175.5,48.5s14.2,91.6,44.3,154" transform="translate(-5.7 -6)" fill="none" stroke="#fff" stroke-linejoin="round" stroke-width="1.5"/><path d="M175.5,48.5s45.4,71.1,49,150.3" transform="translate(-5.7 -6)" fill="none" stroke="#fff" stroke-linejoin="round" stroke-width="1.5"/><path d="M385.3,197.9c19.6-3.7,37.8-13.9,52.2-27.8s33-46.1,34.8-75.4C416.1,103,387,150,379.4,179.9" transform="translate(-5.7 -6)" fill="#d2def9"/><path d="M472.3,94.7s-18.8,68.3-86.7,97.7" transform="translate(-5.7 -6)" fill="none" stroke="#fff" stroke-linejoin="round" stroke-width="1.5"/><path d="M472.3,94.7s-46.2,60.7-92.3,95" transform="translate(-5.7 -6)" fill="none" stroke="#fff" stroke-linejoin="round" stroke-width="1.5"/><path d="M472.3,94.7s-60.5,35.4-94.3,90.8" transform="translate(-5.7 -6)" fill="none" stroke="#fff" stroke-linejoin="round" stroke-width="1.5"/><path d="M440.3,356.5c28.7,5.5,58.9,1.3,85.9-9.8s69.7-45,87.8-83.9c-81-18.9-145.7,29.4-172.2,66" transform="translate(-5.7 -6)" fill="#d2def9"/><path d="M614,262.9s-62.3,82.8-170.4,86.5" transform="translate(-5.7 -6)" fill="none" stroke="#fff" stroke-linejoin="round" stroke-width="1.5"/><path d="M614,262.9s-85.2,56.9-172.5,73" transform="translate(-5.7 -6)" fill="none" stroke="#fff" stroke-linejoin="round" stroke-width="1.5"/><path d="M614,262.9s-101.3,15.7-177,73" transform="translate(-5.7 -6)" fill="none" stroke="#fff" stroke-linejoin="round" stroke-width="1.5"/><path d="M359.9,190.3c24.7-10.6,45-29.6,59-52.5S445.6,65.9,437,25.9c-59,27.4-92.8,99.1-91.7,141.7" transform="translate(-5.7 -6)" fill="#e9f1ff"/><path d="M437,25.9s.5,97.8-78.7,157" transform="translate(-5.7 -6)" fill="none" stroke="#fff" stroke-linejoin="round" stroke-width="1.5"/><path d="M437,25.9s-38.8,95.2-87.2,154.9" transform="translate(-5.7 -6)" fill="none" stroke="#fff" stroke-linejoin="round" stroke-width="1.5"/><path d="M437,25.9S369.8,91,345.6,175.7" transform="translate(-5.7 -6)" fill="none" stroke="#fff" stroke-linejoin="round" stroke-width="1.5"/><path d="M183.4,328.7c-13.4,2.1-36.2,5.2-48.8-3.2-7-4.6-8.2-13.2-11-20.8-4.6-12.9-14.2-20.5-26.9-22.8-5.1-.9-10.4-3.2-12.9-8-3.6-7.2.8-16.5-2.1-24.1-1.6-4.1-5-6.9-7.8-10.2-6.8-7.8-8.4-19.4-8.4-19.4a31.77,31.77,0,0,0,17.3-.3c5.9-1.8,12.3-3,18.4-2,4.8.8,8.4,3.3,11.6,7.1,3.8,4.5,6.9,7.9,12.3,9.8,8.4,2.9,29.1-4.1,31.4,7.9.6,3.3-.1,6.8,1.4,9.9,2.7,5.5,9.3,2.7,13.8,4.1,6.9,2.2,14.5,7.1,17.5,13.6,7.1,15.5,6.8,36.8,2.8,53.7" transform="translate(-5.7 -6)" fill="#e9f1ff"/><path d="M66.4,220.4C89,244.8,123.1,254,145.1,279c6.6,7.5,11.9,16.2,18.1,24s13.7,15.1,22.9,18.2" transform="translate(-5.7 -6)" fill="none" stroke="#fff" stroke-linejoin="round" stroke-width="1.5"/><path d="M82.1,267.1c11.8,1.3,29.7,1,47.5-2.4,0,0-4.4-22.9-8-31.7" transform="translate(-5.7 -6)" fill="none" stroke="#fff" stroke-linejoin="round" stroke-width="1.5"/><path d="M82.5,259.5c13,1,23.9.2,39-.4" transform="translate(-5.7 -6)" fill="none" stroke="#fff" stroke-linejoin="round" stroke-width="1.5"/><path d="M80.6,247.8a149.09,149.09,0,0,0,21.1-1" transform="translate(-5.7 -6)" fill="none" stroke="#fff" stroke-linejoin="round" stroke-width="1.5"/><path d="M69.7,233.1c.1.2,3.5.6,11.5.4" transform="translate(-5.7 -6)" fill="none" stroke="#fff" stroke-linejoin="round" stroke-width="1.5"/><path d="M97.2,244.1c.1.1-5.2-16.2-9.3-25.5" transform="translate(-5.7 -6)" fill="none" stroke="#fff" stroke-linejoin="round" stroke-width="1.5"/><path d="M118.4,257.1c-.1,0-5.2-25.8-10.3-36.5" transform="translate(-5.7 -6)" fill="none" stroke="#fff" stroke-linejoin="round" stroke-width="1.5"/><path d="M108.2,285.9c.4.2,22.6,1.7,40.9-2.2" transform="translate(-5.7 -6)" fill="none" stroke="#fff" stroke-linejoin="round" stroke-width="1.5"/><path d="M143.5,277.2s-2.3-27.5-5.8-41.6" transform="translate(-5.7 -6)" fill="none" stroke="#fff" stroke-linejoin="round" stroke-width="1.5"/><path d="M161.2,253.4c2.6,16.9,2.9,50.6,2.9,50.6s-28.6,3.9-40.5.6" transform="translate(-5.7 -6)" fill="none" stroke="#fff" stroke-linejoin="round" stroke-width="1.5"/><path d="M176.4,316s1-38.1-1.2-58" transform="translate(-5.7 -6)" fill="none" stroke="#fff" stroke-linejoin="round" stroke-width="1.5"/><path d="M125.7,312.2s23.1,3.2,42.5-3.5" transform="translate(-5.7 -6)" fill="none" stroke="#fff" stroke-linejoin="round" stroke-width="1.5"/><path d="M181.1,319s6.6-30.1,1.8-56.5" transform="translate(-5.7 -6)" fill="none" stroke="#fff" stroke-linejoin="round" stroke-width="1.5"/><path d="M367.8,165c6.1-15.7,16-31.3,9.9-48.7-3.4-9.6-13.6-13.7-21.5-18.8-13.5-8.9-19.5-22.4-18.5-38.4.4-6.4-.7-13.5-5.6-17.6-7.2-6.2-19-3.1-26.9-8.5-4.2-2.9-6.5-7.7-9.5-11.9C288.8,10.9,276,6,276,6a42.65,42.65,0,0,1-5.1,21c-3.7,6.7-6.7,14.2-7.4,21.9-.5,6,1.4,11.1,4.9,15.9,4.1,5.7,7.1,10.3,7.8,17.4,1,10.9-12.8,34.3.3,40.1,3.5,1.6,7.8,1.5,10.9,4.1,5.6,4.7.5,12,.9,17.8.6,9,4.1,19.4,10.7,24.6,15.7,12.4,40.1,17.4,60.5,16.7" transform="translate(-5.7 -6)" fill="#e9f1ff"/><path d="M276,7.1c21.5,33.5,22.5,77.2,44.9,110.2,6.7,9.9,15.1,18.5,22.4,28s13.4,20.4,14.3,32.3" transform="translate(-5.7 -6)" fill="none" stroke="#fff" stroke-linejoin="round" stroke-width="1.5"/><path d="M309.1,94.8s-24.9-11-33.9-17.6" transform="translate(-5.7 -6)" fill="none" stroke="#fff" stroke-linejoin="round" stroke-width="1.5"/><path d="M316.1,36.3c-2.5,16-6.4,29-11.3,47.2" transform="translate(-5.7 -6)" fill="none" stroke="#fff" stroke-linejoin="round" stroke-width="1.5"/><path d="M303.4,31.1a197.07,197.07,0,0,1-7,25.3" transform="translate(-5.7 -6)" fill="none" stroke="#fff" stroke-linejoin="round" stroke-width="1.5"/><path d="M296.5,14.3c.2.1-.3,4.4-2.7,14.1" transform="translate(-5.7 -6)" fill="none" stroke="#fff" stroke-linejoin="round" stroke-width="1.5"/><path d="M294.5,50.4c0,.1-17-10.3-26.5-17.6" transform="translate(-5.7 -6)" fill="none" stroke="#fff" stroke-linejoin="round" stroke-width="1.5"/><path d="M303.4,79.3c0-.1-27.9-12.7-38.8-21.5" transform="translate(-5.7 -6)" fill="none" stroke="#fff" stroke-linejoin="round" stroke-width="1.5"/><path d="M337.1,50.4c-2.4,9.2-7.1,33.2-21,57" transform="translate(-5.7 -6)" fill="none" stroke="#fff" stroke-linejoin="round" stroke-width="1.5"/><path d="M319.3,114.8s-30.7-9.6-45.7-17.4" transform="translate(-5.7 -6)" fill="none" stroke="#fff" stroke-linejoin="round" stroke-width="1.5"/><path d="M354.4,164.3s-43.7-8.2-65.8-15.9" transform="translate(-5.7 -6)" fill="none" stroke="#fff" stroke-linejoin="round" stroke-width="1.5"/><path d="M364.2,101.9s-2.7,28.8-15.7,50.8" transform="translate(-5.7 -6)" fill="none" stroke="#fff" stroke-linejoin="round" stroke-width="1.5"/><path d="M455.6,302.7c17.4-3.4,36.7-3.2,48.8-18.3,6.7-8.3,4.5-19.7,4.8-29.6.4-16.9,9-29.8,23.8-37.8,5.9-3.2,11.6-8.1,12.6-14.8,1.5-9.9-7.9-18.6-7.4-28.6.2-5.4,3.2-10.1,5.3-15.1,5.1-11.9,2.4-26,2.4-26a43.3,43.3,0,0,1-21.5,7.1c-8,.4-16.3,1.8-23.6,5.6-5.6,2.9-9.1,7.4-11.4,13.2-2.8,6.8-5.2,12.1-11.2,16.6-9.1,6.9-37.6,7.8-35.4,22.6.6,4,3,7.8,2.4,11.9-1.1,7.6-10.4,7.1-15.4,10.7-7.6,5.5-14.9,14.5-15.9,23.2-2.3,20.9,6.9,45.3,18.8,63" transform="translate(-5.7 -6)" fill="#e9f1ff"/><path d="M544.8,133.2c-17.7,37.8-56.1,63-72.9,101.2-5,11.5-8,23.7-12.4,35.5s-10.7,23.3-20.7,30.7" transform="translate(-5.7 -6)" fill="none" stroke="#fff" stroke-linejoin="round" stroke-width="1.5"/><path d="M544.8,193.7c-14,6.5-36.2,13.9-59.5,17.7,0,0-4.1-28.2-3.2-39.9" transform="translate(-5.7 -6)" fill="none" stroke="#fff" stroke-linejoin="round" stroke-width="1.5"/><path d="M541.2,185.1c-15.6,6.7-29.4,10.4-48.3,16.2" transform="translate(-5.7 -6)" fill="none" stroke="#fff" stroke-linejoin="round" stroke-width="1.5"/><path d="M538.7,170.9a200.44,200.44,0,0,1-26.4,7.9" transform="translate(-5.7 -6)" fill="none" stroke="#fff" stroke-linejoin="round" stroke-width="1.5"/><path d="M546,149.2c0,.2-4.1,2.2-14,5.4" transform="translate(-5.7 -6)" fill="none" stroke="#fff" stroke-linejoin="round" stroke-width="1.5"/><path d="M516.7,173.7c-.1.1-.3-20.9.9-33.3" transform="translate(-5.7 -6)" fill="none" stroke="#fff" stroke-linejoin="round" stroke-width="1.5"/><path d="M495.9,197.7c.1-.1-4.2-31.9-2.5-46.4" transform="translate(-5.7 -6)" fill="none" stroke="#fff" stroke-linejoin="round" stroke-width="1.5"/><path d="M520.4,226.5c-.4.4-27.2,11.7-51.3,15.1" transform="translate(-5.7 -6)" fill="none" stroke="#fff" stroke-linejoin="round" stroke-width="1.5"/><path d="M473.2,231.6s-8.6-32.6-10-50.3" transform="translate(-5.7 -6)" fill="none" stroke="#fff" stroke-linejoin="round" stroke-width="1.5"/><path d="M441.6,211.9c3.8,20.6,17.3,59.5,17.3,59.5s36.9-7.8,50.2-16.7" transform="translate(-5.7 -6)" fill="none" stroke="#fff" stroke-linejoin="round" stroke-width="1.5"/><path d="M448.8,290.4s-17-43.4-22.5-67.3" transform="translate(-5.7 -6)" fill="none" stroke="#fff" stroke-linejoin="round" stroke-width="1.5"/><path d="M509.7,264.3s-27.1,13.7-53.9,14.3" transform="translate(-5.7 -6)" fill="none" stroke="#fff" stroke-linejoin="round" stroke-width="1.5"/><path d="M444.2,295.9s-20.6-31.7-25.6-64.2" transform="translate(-5.7 -6)" fill="none" stroke="#fff" stroke-linejoin="round" stroke-width="1.5"/><path d="M385.2,231.7c2.4,5,12,25.9,14.4,30.9-7.7,2.5-14.8,5.6-22.3,8.5-3.2,4.3,4-4.2,4.3-8.9" transform="translate(-5.7 -6)" fill="#f777ba"/><path d="M401.7,269.5l-4.4,1.5a18,18,0,0,0-.8-2.1,13.07,13.07,0,0,0-2.7,1.2,6.12,6.12,0,0,0-.5,1.2,2.12,2.12,0,0,1-1.4,1.5l-17.3,6c-2.1.7-3.4-1.8-1.5-3.8,1.7-1.9,5.3-5.9,5.5-6,7.1-1.7,17.9-6.9,19.3-10C400.3,260.2,401.7,269.4,401.7,269.5Z" transform="translate(-5.7 -6)" fill="#0b0b3a"/><path d="M383.3,174.9c.4,11.3-.8,34,.7,43.7,1,6.1,11.9,36.2,11.9,36.2l-14.4,7.5s-12.4-19.1-19.4-41.6c-4.5-14.6-4.9-30.7-4.9-43.9" transform="translate(-5.7 -6)" fill="#f777ba"/><path d="M420.9,208.3c4,3.7,20.7,19.6,24.8,23.4-6.2,5.1-11.6,10.7-17.5,16.2-1.4,5.2,2.1-5.4.7-9.8" transform="translate(-5.7 -6)" fill="#f777ba"/><path d="M450.2,237.3l-3.5,3c-.5-.6-1-1.2-1.5-1.7a20.79,20.79,0,0,0-2.1,2.1,2.85,2.85,0,0,0,0,1.3,2.28,2.28,0,0,1-.7,1.9l-13.9,12c-1.7,1.5-3.8-.4-2.8-3,.9-2.3,2.8-7.4,2.9-7.6,6-4.2,14.1-13,14.2-16.5C445.5,229.2,450.2,237.2,450.2,237.3Z" transform="translate(-5.7 -6)" fill="#0b0b3a"/><path d="M406.8,153.6s-.9,33.3,3.7,41.8c5.4,10,23,25,23,25L428.8,238s-24.7-13.7-37.6-30.3c-9.8-12.6-10.2-52.2-10.2-52.2" transform="translate(-5.7 -6)" fill="#f777ba"/><path d="M405.5,125.7c17.4,13.4,16,67,16,67s-19.3,5.1-35.1,5.1a248,248,0,0,1-32.2-2.5c1-46.1,9.1-58.1,13.8-66" transform="translate(-5.7 -6)" fill="#18277a"/><path d="M373,52.5s3.9,11.4,3.3,14.1-9.3,1.9-11.5,1.8c-.2-5.8,1.8-14,1.8-14" transform="translate(-5.7 -6)" fill="#212237"/><path d="M374.4,65.9l.9,6.4s4.6,3,8.5,1.4c4.1-1.7,3.9-3.9,3.9-3.9l-4.9-11.7" transform="translate(-5.7 -6)" fill="#ffcbbb"/><path d="M367.9,54.8c-.1,8.2,1.4,14.6,6.8,14.2,5.7-.4,9.9-5.1,7.9-11.5C380.4,50.7,368.4,50,367.9,54.8Z" transform="translate(-5.7 -6)" fill="#ffcbbb"/><path d="M374.9,69.4a9.44,9.44,0,0,0,7.6-5.7" transform="translate(-5.7 -6)" fill="none" stroke="#ef977f" stroke-linejoin="round" stroke-width="0.75"/><path d="M381.7,57.1Z" transform="translate(-5.7 -6)" fill="#ff855a"/><path d="M381.6,57.1Z" transform="translate(-5.7 -6)" fill="#ff855a"/><path d="M376.4,54.2c-4.6,1.2-7.9,1.1-11-.1.5-2.8,2.2-6.7,7.4-6.8a9.05,9.05,0,0,1,8.9-1.8,11.58,11.58,0,0,1,6.6,5.5c2.6,4.4,3.2,11.1,3.1,14.8a42.9,42.9,0,0,1-10,1.8C381.5,67.7,379.8,56.6,376.4,54.2Z" transform="translate(-5.7 -6)" fill="#212237"/><path d="M379.1,59.6a1.71,1.71,0,0,1,.7-1.3c1.1-.7,2.2.7,2.3,1.9a3.14,3.14,0,0,1-.5,2.1c-.5.9-1.4,1.3-2.1.4" transform="translate(-5.7 -6)" fill="#ffcbbb"/><path d="M372.1,59.1s-1,3.1-.6,3.8,2.1.3,2.1.3" transform="translate(-5.7 -6)" fill="none" stroke="#ef977f" stroke-linejoin="round" stroke-width="0.5"/><path d="M372.1,64.7,377,64a3.12,3.12,0,0,1-2.9,2.9C372.1,67,372.1,64.7,372.1,64.7Z" transform="translate(-5.7 -6)" fill="#fff"/><path d="M369.9,58.8v.7a.37.37,0,0,0,.1.3c.1.2.4.2.6,0h0a.37.37,0,0,0,.1-.3v-.8l-.1-.1c-.1-.1-.1-.1-.2-.1h-.2c-.1,0-.1.1-.2.2h-.1Z" transform="translate(-5.7 -6)" fill="#00276f"/><path d="M371.1,57.3a1.36,1.36,0,0,0-1.8.2v.1" transform="translate(-5.7 -6)" fill="none" stroke="#00276f" stroke-linecap="round" stroke-linejoin="round" stroke-width="0.5"/><path d="M375.7,58.6v.9c0,.1,0,.1.1.1a.4.4,0,0,0,.7-.3v-.8c0-.2-.2-.3-.4-.2s-.1,0-.2.1l-.1.1v.2Z" transform="translate(-5.7 -6)" fill="#00276f"/><path d="M375,56.8a2.44,2.44,0,0,1,2.6.3" transform="translate(-5.7 -6)" fill="none" stroke="#00276f" stroke-linecap="round" stroke-linejoin="round" stroke-width="0.5"/><path d="M370.1,100.1c-15.7,21.8-47.8,41.4-47.8,41.4l-6.7-8.4s24-20.2,38.5-43.3" transform="translate(-5.7 -6)" fill="#ffcbbb"/><path d="M318.5,130.9c-3,2.6-12.8,8.6-12.6,9.4s3.7-1.3,3.8-.7-5.1,4.2-4.7,4.9c.6,1,5.6-3,5.6-3s-5.3,4.6-4.5,5.3c.5.5,4.8-2.8,6.5-3.9-1.8,1.4-4.4,4-3.8,4.5s3.5-1.7,5.8-3.2c-1.4,1.1-3.7,3.2-3.2,3.8s8-4.4,14.9-9.2" transform="translate(-5.7 -6)" fill="#ffcbbb"/><path d="M310.9,139.6s3.8.1,5.4-.7" transform="translate(-5.7 -6)" fill="none" stroke="#ef977f" stroke-linejoin="round" stroke-width="0.75"/><path d="M373.5,72.4c-6.9-1.2-13,3.7-15.7,7.9a126.73,126.73,0,0,0-8.3,15.4l16.2,9.7,9.2-28.9" transform="translate(-5.7 -6)" fill="#ee5050"/><path d="M373.5,72.4c3.2.6,4,1.7,6.2,1a33.77,33.77,0,0,0,7.2-3.4c-2.7.2,8.7,2.2,17.5,11.5,2.9,10.1,3.3,20.1,4.1,46.7a72.83,72.83,0,0,1-40.6,1.1s-2.5-11.6-5.3-20.2c-3.9-7.9-2.2-16.8,2.2-24.1C364.9,80.7,373.5,72.4,373.5,72.4Z" transform="translate(-5.7 -6)" fill="#ee5050"/><polygon points="380.9 61.3 373.5 67.5 378.2 72.6 383.1 65.1 380.9 61.3" fill="#fff"/><polygon points="373.5 67.5 369.3 64.2 367.8 66.4 369.8 72.4 373.5 67.5" fill="#fff"/><path d="M360.4,100.1c-.2-5.2,2.8-13.1,2.8-13.1" transform="translate(-5.7 -6)" fill="none" stroke="#a52f2d" stroke-miterlimit="10" stroke-width="0.75"/><path d="M441.3,407.3h-.9l-106.5-7.5A13,13,0,0,1,321.8,386v-.1l2.2-31.4a3.79,3.79,0,0,1,4-3.5,3.73,3.73,0,0,1,2.3,1,19.08,19.08,0,0,0,11.5,5.2h1.3c10.8,0,19.9-9.6,20.8-22,.9-12.9-7.5-24-18.8-24.8h-1.3a19.36,19.36,0,0,0-10.9,3.5,3.41,3.41,0,0,1-2.2.7,4,4,0,0,1-2.8-1.2,3.61,3.61,0,0,1-1-2.8l2.2-31.3a13.08,13.08,0,0,1,13-12.1h.9l32.4,2.3a3.79,3.79,0,0,1,3.5,4,4.2,4.2,0,0,1-1.2,2.5,18.81,18.81,0,0,0-6.2,12.5c-.8,11.3,9,21.2,21.9,22.1.6,0,1.3.1,1.9.1,12.1,0,22.2-8.3,22.9-18.9a19.12,19.12,0,0,0-4.3-13.2,3.68,3.68,0,0,1,.6-5.2,4,4,0,0,1,2.3-.8h.3l32.4,2.3a13,13,0,0,1,12.1,13.9l-7.5,106.5A12.74,12.74,0,0,1,441.3,407.3Z" transform="translate(-5.7 -6)" fill="#0948b3"/><path d="M342.3,268h.9l32.4,2.3a2.91,2.91,0,0,1,2.7,3.3,3.38,3.38,0,0,1-.9,1.9,19.77,19.77,0,0,0-6.4,13c-.8,11.7,9.3,21.9,22.6,22.9.7,0,1.3.1,2,.1,12.5,0,22.9-8.4,23.7-19.5a19.43,19.43,0,0,0-4.5-13.7,3,3,0,0,1,.5-4.2,2.79,2.79,0,0,1,1.8-.6h.2l32.4,2.3a12.29,12.29,0,0,1,11.4,13.1l-7.5,106.5a12.31,12.31,0,0,1-12.2,11.4h-.9L334,399.3a12.23,12.23,0,0,1-11.4-13.1h0l2.2-31.3a3,3,0,0,1,3-2.8,3.23,3.23,0,0,1,2.1.8,19.83,19.83,0,0,0,12,5.4h1.3c11.1,0,20.6-9.9,21.5-22.7.9-13.3-7.8-24.8-19.5-25.6h-1.3a19.1,19.1,0,0,0-11.3,3.7,3.12,3.12,0,0,1-4.2-.7,2.51,2.51,0,0,1-.5-1.9l2.2-31.4A12.28,12.28,0,0,1,342.3,268m0-1.5h0a13.92,13.92,0,0,0-13.8,12.8l-2.2,31.3a4.48,4.48,0,0,0,1.2,3.4,4.53,4.53,0,0,0,3.3,1.4,5,5,0,0,0,2.6-.8,17.72,17.72,0,0,1,10.4-3.4H345c10.9.8,19,11.5,18.1,24-.8,11.9-9.6,21.3-20,21.3h-1.2a17.79,17.79,0,0,1-11.1-5,4.44,4.44,0,0,0-6.3.2,4.2,4.2,0,0,0-1.2,2.8l-2.2,31.4a13.78,13.78,0,0,0,12.8,14.7l106.5,7.5h1a13.76,13.76,0,0,0,13.7-12.8l7.5-106.5a13.78,13.78,0,0,0-12.8-14.7l-32.4-2.3h-.3a4.48,4.48,0,0,0-4.5,4.5,4.19,4.19,0,0,0,1,2.8,17.8,17.8,0,0,1,4.2,12.7c-.7,10.2-10.5,18.1-22.2,18.1a12.75,12.75,0,0,1-1.9-.1,24.44,24.44,0,0,1-15.7-7,17.82,17.82,0,0,1,.3-26.3,4.44,4.44,0,0,0,.2-6.3,4.69,4.69,0,0,0-2.9-1.4l-32.4-2.3a1.31,1.31,0,0,0-.9,0Z" transform="translate(-5.7 -6)" fill="#fff"/><g clip-path="url(#clip-path)"><g opacity="0.19"><circle cx="422.29" cy="426.19" r="61.1" fill="none" stroke="#91abe5" stroke-miterlimit="10.03" stroke-width="11.03"/><circle cx="418.9" cy="424.3" r="38.5" fill="none" stroke="#91abe5" stroke-miterlimit="10" stroke-width="11"/><circle cx="420.1" cy="425.8" r="20.1" fill="none" stroke="#91abe5" stroke-miterlimit="10" stroke-width="11"/></g></g><path d="M289.8,265.1a8.08,8.08,0,0,1-1.6-.1l-32.4-4.1a3.69,3.69,0,0,1-3.2-4.1,3.83,3.83,0,0,1,1.3-2.4,18.6,18.6,0,0,0,3.2-26.1c-.4-.5-.8-.9-1.2-1.4a25.29,25.29,0,0,0-15.7-8.1c-1.1-.1-2.2-.2-3.4-.2-11.5,0-21.2,7.6-22.4,17.6a19.13,19.13,0,0,0,3.7,13.7,3.66,3.66,0,0,1,.3,3.9,3.38,3.38,0,0,1-3.3,2h-.5l-32.4-4.1a13,13,0,0,1-11.3-14.5V237l13.3-105.9a13.07,13.07,0,0,1,14.6-11.3l105.9,13.3a13,13,0,0,1,11.4,14.4v.2l-4,31.8a3.7,3.7,0,0,1-6.5,2,18.66,18.66,0,0,0-11.9-6.5,17,17,0,0,0-2.3-.1c-10.5,0-19.5,9-21,20.8-1.6,12.8,6.2,24.4,17.4,25.8a17,17,0,0,0,2.3.1,18.1,18.1,0,0,0,10.8-3.5,3.77,3.77,0,0,1,2.1-.7,3.72,3.72,0,0,1,2.8,1.3,3.89,3.89,0,0,1,.9,2.9l-4,31.8A12.92,12.92,0,0,1,289.8,265.1Z" transform="translate(-5.7 -6)" fill="#ee5050"/><path d="M197.2,120.6a7.57,7.57,0,0,1,1.5.1l106,13.3a12.34,12.34,0,0,1,10.7,13.7h0l-4,31.8a3,3,0,0,1-3,2.6,3.21,3.21,0,0,1-2.2-1,18.35,18.35,0,0,0-14.7-6.8c-10.7,0-20.2,9.1-21.7,21.5-1.6,13.2,6.4,25.2,18.1,26.6a20.33,20.33,0,0,0,13.6-3.5,3.37,3.37,0,0,1,1.7-.5,3,3,0,0,1,3,3v.4l-4,31.8A12.39,12.39,0,0,1,290,264.4a7.57,7.57,0,0,1-1.5-.1l-32.4-4.1a3.11,3.11,0,0,1-2.6-3.4,3.52,3.52,0,0,1,1-1.9,19.19,19.19,0,0,0,7.2-12.8c1.5-11.6-8.1-22.4-21.4-24.1-1.1-.1-2.3-.2-3.5-.2-11.8,0-21.9,7.7-23.2,18.3a19.7,19.7,0,0,0,3.9,14.2,3,3,0,0,1-.7,4.2,3.37,3.37,0,0,1-1.7.5h-.4l-32.4-4.1a12.34,12.34,0,0,1-10.7-13.7h0L185,131.3a12.3,12.3,0,0,1,12.2-10.7m0-1.5h0a13.89,13.89,0,0,0-13.7,12L170.2,237a13.77,13.77,0,0,0,12,15.4h0l32.4,4.1h.6a4.48,4.48,0,0,0,4.5-4.5,3.92,3.92,0,0,0-.9-2.6,18.49,18.49,0,0,1-3.6-13.1c1.2-9.7,10.5-17,21.7-17,1.1,0,2.2.1,3.3.2a24.42,24.42,0,0,1,15.3,7.8,18,18,0,0,1-.6,25.3,12.67,12.67,0,0,1-1.3,1.1,4.46,4.46,0,0,0-.6,6.3,4.26,4.26,0,0,0,2.9,1.6l32.4,4.1a10.28,10.28,0,0,0,1.7.1,13.89,13.89,0,0,0,13.7-12.1l4-31.8a4.06,4.06,0,0,0-1.1-3.5,4.48,4.48,0,0,0-3.4-1.5,4.38,4.38,0,0,0-2.5.8,17.72,17.72,0,0,1-10.4,3.4,17,17,0,0,1-2.2-.1c-10.8-1.4-18.3-12.6-16.8-25,1.4-11.5,10.1-20.2,20.2-20.2a16.2,16.2,0,0,1,2.2.1,18.27,18.27,0,0,1,11.4,6.2,4.13,4.13,0,0,0,3.3,1.5,4.53,4.53,0,0,0,4.5-3.9l4-31.8a13.77,13.77,0,0,0-12-15.4L199,119.2a10.87,10.87,0,0,0-1.8-.1Z" transform="translate(-5.7 -6)" fill="#fff"/><g clip-path="url(#clip-path-2)"><g opacity="0.25"><circle cx="178.9" cy="126.6" r="60.9" fill="none" stroke="#fff" stroke-miterlimit="10" stroke-width="11"/><circle cx="177.6" cy="125.3" r="41.5" fill="none" stroke="#fff" stroke-miterlimit="10" stroke-width="11"/><circle cx="178.9" cy="126.6" r="20.1" fill="none" stroke="#fff" stroke-miterlimit="10" stroke-width="11"/></g></g><path d="M386.7,298.5a26.28,26.28,0,0,1-17.5-6.6,20.23,20.23,0,0,1-2.5-28.4,16.61,16.61,0,0,1,1.3-1.4,2.35,2.35,0,0,0,.5-2.4,2.17,2.17,0,0,0-2-1.4l-32.7-.3a12.91,12.91,0,0,1-12.9-13.1v-.1l.3-31.6a2.27,2.27,0,0,0-.6-1.6,2.36,2.36,0,0,0-1.6-.7,2.39,2.39,0,0,0-1.4.5,20.94,20.94,0,0,1-12.9,4.8h-.2c-12.1-.1-21.9-11.4-21.7-25.2s10-24.7,22-24.7h.2a20.08,20.08,0,0,1,13,5,2.39,2.39,0,0,0,1.4.5,2.22,2.22,0,0,0,2.2-2.2l.3-31.6a13.08,13.08,0,0,1,13-12.9l106.9,1.1a13.06,13.06,0,0,1,12.9,13.2l-1.1,106.8a13.08,13.08,0,0,1-13,12.9l-32.8-.3a2.26,2.26,0,0,0-2.1,1.4,2.13,2.13,0,0,0,.4,2.4,20.3,20.3,0,0,1,5.7,14.2c-.1,12-11.3,21.7-24.9,21.7Z" transform="translate(-5.7 -6)" fill="#d2def9"/><path d="M335,126h.1l106.8,1.1a12.36,12.36,0,0,1,12.2,12.4L453,246.2a12.4,12.4,0,0,1-12.3,12.2h-.1l-32.7-.3h0a2.89,2.89,0,0,0-2.9,3.1,2.73,2.73,0,0,0,.8,1.9,19.37,19.37,0,0,1,5.4,13.6c-.1,11.6-10.9,21-24.1,21h-.3c-13.4-.1-24.1-9.8-24-21.5a19.85,19.85,0,0,1,5.8-13.6,3,3,0,0,0-.1-4.2,2.79,2.79,0,0,0-2-.8l-32.6-.3a12.36,12.36,0,0,1-12.2-12.4l.3-31.6a3,3,0,0,0-3-3,2.81,2.81,0,0,0-1.9.7,19.59,19.59,0,0,1-12.4,4.6h-.2c-11.7-.1-21.1-11-21-24.4s9.6-24,21.3-24h.2a19.64,19.64,0,0,1,12.5,4.8,2.64,2.64,0,0,0,1.9.7,3,3,0,0,0,3-3l.3-31.6A12.19,12.19,0,0,1,335,126m-.1-1.5a13.85,13.85,0,0,0-13.7,13.7l-.3,31.6a1.54,1.54,0,0,1-1.5,1.5,1.09,1.09,0,0,1-.9-.4,20.85,20.85,0,0,0-13.5-5.2h-.2c-12.4,0-22.6,11.5-22.8,25.5s9.9,25.8,22.5,25.9h.2a21.25,21.25,0,0,0,13.4-4.9,1.61,1.61,0,0,1,.9-.3,2.1,2.1,0,0,1,1.1.4,1.5,1.5,0,0,1,.4,1.1l-.3,31.6a13.68,13.68,0,0,0,13.6,13.9h0l32.7.3a1.45,1.45,0,0,1,1.4,1.5,1.78,1.78,0,0,1-.4,1,21.11,21.11,0,0,0-6.2,14.6c-.1,12.5,11.3,22.9,25.5,23h.3c14,0,25.5-10.1,25.6-22.5a21.06,21.06,0,0,0-5.9-14.7,1.53,1.53,0,0,1-.3-1.6,1.57,1.57,0,0,1,1.4-.9l32.7.3h.1a13.79,13.79,0,0,0,13.8-13.6l1.1-106.7A13.68,13.68,0,0,0,442,125.7l-106.7-1.1Z" transform="translate(-5.7 -6)" fill="#fff"/><g clip-path="url(#clip-path-3)"><path d="M286.8,145.7a2.79,2.79,0,0,1-3.3-2.4,2.86,2.86,0,0,1,2.4-3.3,2.79,2.79,0,0,1,3.3,2.4,3,3,0,0,1-2.4,3.3Z" transform="translate(-5.7 -6)" fill="#fff"/><path d="M313.5,141.1a2.89,2.89,0,1,1,2.4-3.3,2.84,2.84,0,0,1-2.4,3.3Z" transform="translate(-5.7 -6)" fill="#fff"/><path d="M340.3,136.6a2.89,2.89,0,1,1,2.4-3.3,2.94,2.94,0,0,1-2.4,3.3Z" transform="translate(-5.7 -6)" fill="#fff"/><path d="M367,132.1a2.89,2.89,0,1,1,2.4-3.3,2.84,2.84,0,0,1-2.4,3.3Z" transform="translate(-5.7 -6)" fill="#fff"/><path d="M393.8,127.6a2.89,2.89,0,1,1,2.4-3.4,3,3,0,0,1-2.4,3.4Z" transform="translate(-5.7 -6)" fill="#fff"/><path d="M420.5,123.1a2.79,2.79,0,0,1-3.3-2.4,2.86,2.86,0,0,1,2.4-3.3,2.79,2.79,0,0,1,3.3,2.4,2.86,2.86,0,0,1-2.4,3.3Z" transform="translate(-5.7 -6)" fill="#fff"/><path d="M447.3,118.6a2.89,2.89,0,1,1,2.4-3.3,3.06,3.06,0,0,1-2.4,3.3Z" transform="translate(-5.7 -6)" fill="#fff"/><path d="M290.5,167.6a2.79,2.79,0,0,1-3.3-2.4,2.86,2.86,0,0,1,2.4-3.3,2.79,2.79,0,0,1,3.3,2.4,2.94,2.94,0,0,1-2.4,3.3Z" transform="translate(-5.7 -6)" fill="#fff"/><circle cx="311.1" cy="154.3" r="2.9" fill="#fff"/><path d="M344,158.6a2.89,2.89,0,1,1-.9-5.7,2.86,2.86,0,0,1,3.3,2.4h0A3,3,0,0,1,344,158.6Z" transform="translate(-5.7 -6)" fill="#fff"/><path d="M370.7,154.1a2.89,2.89,0,1,1-.9-5.7,2.86,2.86,0,0,1,3.3,2.4h0A2.86,2.86,0,0,1,370.7,154.1Z" transform="translate(-5.7 -6)" fill="#fff"/><path d="M397.5,149.6a2.89,2.89,0,1,1-.9-5.7,2.86,2.86,0,0,1,3.3,2.4h0A3.06,3.06,0,0,1,397.5,149.6Z" transform="translate(-5.7 -6)" fill="#fff"/><path d="M424.2,145.1a2.79,2.79,0,0,1-3.3-2.4,2.86,2.86,0,0,1,2.4-3.3,2.89,2.89,0,0,1,.9,5.7Z" transform="translate(-5.7 -6)" fill="#fff"/><path d="M451,140.6a2.79,2.79,0,0,1-3.3-2.4,2.86,2.86,0,0,1,2.4-3.3,2.79,2.79,0,0,1,3.3,2.4A3.06,3.06,0,0,1,451,140.6Z" transform="translate(-5.7 -6)" fill="#fff"/><path d="M294.2,189.6a2.89,2.89,0,1,1,2.4-3.3,3,3,0,0,1-2.4,3.3Z" transform="translate(-5.7 -6)" fill="#fff"/><path d="M320.9,185.1a2.89,2.89,0,1,1,2.4-3.4,2.89,2.89,0,0,1-2.4,3.4Z" transform="translate(-5.7 -6)" fill="#fff"/><path d="M347.7,180.6a2.79,2.79,0,0,1-3.3-2.4,2.86,2.86,0,0,1,2.4-3.3,2.79,2.79,0,0,1,3.3,2.4,3.06,3.06,0,0,1-2.4,3.3Z" transform="translate(-5.7 -6)" fill="#fff"/><path d="M374.4,176a2.89,2.89,0,1,1,2.4-3.3,2.79,2.79,0,0,1-2.4,3.3Z" transform="translate(-5.7 -6)" fill="#fff"/><path d="M401.2,171.5a2.89,2.89,0,1,1,2.4-3.3,2.84,2.84,0,0,1-2.4,3.3Z" transform="translate(-5.7 -6)" fill="#fff"/><path d="M427.9,167a2.89,2.89,0,1,1,2.4-3.4,2.84,2.84,0,0,1-2.4,3.4Z" transform="translate(-5.7 -6)" fill="#fff"/><path d="M454.7,162.5a2.79,2.79,0,0,1-3.3-2.4,2.86,2.86,0,0,1,2.4-3.3,2.79,2.79,0,0,1,3.3,2.4,2.92,2.92,0,0,1-2.4,3.3Z" transform="translate(-5.7 -6)" fill="#fff"/><path d="M297.9,211.5a2.89,2.89,0,1,1-.9-5.7,2.86,2.86,0,0,1,3.3,2.4h0A2.86,2.86,0,0,1,297.9,211.5Z" transform="translate(-5.7 -6)" fill="#fff"/><path d="M324.6,207a2.89,2.89,0,0,1-.9-5.7,2.86,2.86,0,0,1,3.3,2.4h0A2.79,2.79,0,0,1,324.6,207Z" transform="translate(-5.7 -6)" fill="#fff"/><path d="M351.4,202.5a2.79,2.79,0,0,1-3.3-2.4,2.86,2.86,0,0,1,2.4-3.3,2.79,2.79,0,0,1,3.3,2.4,2.86,2.86,0,0,1-2.4,3.3Z" transform="translate(-5.7 -6)" fill="#fff"/><path d="M378.1,198a2.79,2.79,0,0,1-3.3-2.4,2.86,2.86,0,0,1,2.4-3.3,2.79,2.79,0,0,1,3.3,2.4A2.86,2.86,0,0,1,378.1,198Z" transform="translate(-5.7 -6)" fill="#fff"/><path d="M404.9,193.5a2.89,2.89,0,1,1-.9-5.7,2.86,2.86,0,0,1,3.3,2.4h0A2.92,2.92,0,0,1,404.9,193.5Z" transform="translate(-5.7 -6)" fill="#fff"/><path d="M431.6,189a2.89,2.89,0,0,1-.9-5.7,2.86,2.86,0,0,1,3.3,2.4h0A2.89,2.89,0,0,1,431.6,189Z" transform="translate(-5.7 -6)" fill="#fff"/><path d="M458.4,184.5a2.79,2.79,0,0,1-3.3-2.4,2.86,2.86,0,0,1,2.4-3.3,2.79,2.79,0,0,1,3.3,2.4,3,3,0,0,1-2.4,3.3Z" transform="translate(-5.7 -6)" fill="#fff"/><path d="M301.6,233.5a2.89,2.89,0,1,1,2.4-3.3,2.92,2.92,0,0,1-2.4,3.3Z" transform="translate(-5.7 -6)" fill="#fff"/><path d="M328.3,229a2.89,2.89,0,1,1,2.4-3.3,2.84,2.84,0,0,1-2.4,3.3Z" transform="translate(-5.7 -6)" fill="#fff"/><path d="M355.1,224.5a2.89,2.89,0,1,1,2.4-3.3,2.89,2.89,0,0,1-2.4,3.3Z" transform="translate(-5.7 -6)" fill="#fff"/><path d="M381.8,220a2.79,2.79,0,0,1-3.3-2.4,2.86,2.86,0,0,1,2.4-3.3,2.79,2.79,0,0,1,3.3,2.4,2.89,2.89,0,0,1-2.4,3.3Z" transform="translate(-5.7 -6)" fill="#fff"/><path d="M408.6,215.5a2.79,2.79,0,0,1-3.3-2.4,2.86,2.86,0,0,1,2.4-3.3,2.79,2.79,0,0,1,3.3,2.4,3,3,0,0,1-2.4,3.3Z" transform="translate(-5.7 -6)" fill="#fff"/><path d="M435.3,210.9a2.89,2.89,0,1,1,2.4-3.3,2.79,2.79,0,0,1-2.4,3.3Z" transform="translate(-5.7 -6)" fill="#fff"/><path d="M462.1,206.4a2.89,2.89,0,1,1,2.4-3.3,2.79,2.79,0,0,1-2.4,3.3Z" transform="translate(-5.7 -6)" fill="#fff"/><path d="M305.3,255.5a2.84,2.84,0,1,1,2.3-3.3h0A2.82,2.82,0,0,1,305.3,255.5Z" transform="translate(-5.7 -6)" fill="#fff"/><path d="M332.1,251a2.79,2.79,0,0,1-3.3-2.3,2.92,2.92,0,0,1,2.3-3.3,2.79,2.79,0,0,1,3.3,2.3h0A2.9,2.9,0,0,1,332.1,251Z" transform="translate(-5.7 -6)" fill="#fff"/><path d="M358.8,246.4a2.84,2.84,0,1,1,2.3-3.3h0A2.73,2.73,0,0,1,358.8,246.4Z" transform="translate(-5.7 -6)" fill="#fff"/><path d="M385.6,241.9a2.84,2.84,0,1,1,2.3-3.3h0A2.79,2.79,0,0,1,385.6,241.9Z" transform="translate(-5.7 -6)" fill="#fff"/><path d="M412.3,237.4a2.84,2.84,0,1,1,2.3-3.3h0A2.73,2.73,0,0,1,412.3,237.4Z" transform="translate(-5.7 -6)" fill="#fff"/><path d="M439.1,232.9a2.84,2.84,0,1,1,2.3-3.3h0A2.85,2.85,0,0,1,439.1,232.9Z" transform="translate(-5.7 -6)" fill="#fff"/><path d="M465.8,228.4a2.84,2.84,0,1,1,2.3-3.3v.1A2.8,2.8,0,0,1,465.8,228.4Z" transform="translate(-5.7 -6)" fill="#fff"/><path d="M309,277.4a2.79,2.79,0,0,1-3.3-2.4,2.86,2.86,0,0,1,2.4-3.3,2.79,2.79,0,0,1,3.3,2.4,2.86,2.86,0,0,1-2.4,3.3Z" transform="translate(-5.7 -6)" fill="#fff"/><path d="M335.8,272.9a2.79,2.79,0,0,1-3.3-2.4,2.86,2.86,0,0,1,2.4-3.3,2.79,2.79,0,0,1,3.3,2.4,2.94,2.94,0,0,1-2.4,3.3Z" transform="translate(-5.7 -6)" fill="#fff"/><path d="M362.5,268.4a2.89,2.89,0,1,1,2.4-3.3h0a2.92,2.92,0,0,1-2.4,3.3Z" transform="translate(-5.7 -6)" fill="#fff"/><path d="M389.2,263.9a2.89,2.89,0,1,1,2.4-3.3h0a2.89,2.89,0,0,1-2.4,3.3Z" transform="translate(-5.7 -6)" fill="#fff"/><path d="M416,259.4a2.79,2.79,0,0,1-3.3-2.4,2.86,2.86,0,0,1,2.4-3.3,2.79,2.79,0,0,1,3.3,2.4,3,3,0,0,1-2.4,3.3Z" transform="translate(-5.7 -6)" fill="#fff"/><path d="M442.8,254.9a2.79,2.79,0,0,1-3.3-2.4,2.86,2.86,0,0,1,2.4-3.3,2.79,2.79,0,0,1,3.3,2.4,3.06,3.06,0,0,1-2.4,3.3Z" transform="translate(-5.7 -6)" fill="#fff"/><path d="M469.5,250.4a2.89,2.89,0,0,1-.9-5.7,2.86,2.86,0,0,1,3.3,2.4h0a3,3,0,0,1-2.4,3.3Z" transform="translate(-5.7 -6)" fill="#fff"/><path d="M312.7,299.4a2.84,2.84,0,1,1,2.3-3.3h0A2.82,2.82,0,0,1,312.7,299.4Z" transform="translate(-5.7 -6)" fill="#fff"/><path d="M339.5,294.9a2.84,2.84,0,1,1,2.3-3.3h0A2.9,2.9,0,0,1,339.5,294.9Z" transform="translate(-5.7 -6)" fill="#fff"/><path d="M366.2,290.4a2.84,2.84,0,1,1,2.3-3.3h0A2.82,2.82,0,0,1,366.2,290.4Z" transform="translate(-5.7 -6)" fill="#fff"/><path d="M393,285.9a2.79,2.79,0,0,1-3.3-2.3,2.84,2.84,0,0,1,5.6-1h0A2.9,2.9,0,0,1,393,285.9Z" transform="translate(-5.7 -6)" fill="#fff"/><path d="M419.7,281.4a2.79,2.79,0,0,1-3.3-2.3,2.84,2.84,0,0,1,5.6-1h0A2.82,2.82,0,0,1,419.7,281.4Z" transform="translate(-5.7 -6)" fill="#fff"/><path d="M446.5,276.8a2.84,2.84,0,1,1,2.3-3.3h0A2.79,2.79,0,0,1,446.5,276.8Z" transform="translate(-5.7 -6)" fill="#fff"/><path d="M473.2,272.3a2.84,2.84,0,1,1,2.3-3.3h0A2.73,2.73,0,0,1,473.2,272.3Z" transform="translate(-5.7 -6)" fill="#fff"/></g><path d="M191.6,406.9a13,13,0,0,1-13-12.3l-6-106.6a12.91,12.91,0,0,1,12.2-13.7h.1l32.5-1.8a2.13,2.13,0,0,0,2-1.5,2.19,2.19,0,0,0-.6-2.4,20.09,20.09,0,0,1-1.3-28.4l1.2-1.2a26.65,26.65,0,0,1,17.2-7.4h1.6c13.1,0,23.9,9.1,24.5,20.6a20.78,20.78,0,0,1-4.9,14.3,2.12,2.12,0,0,0,.3,3.1,2.39,2.39,0,0,0,1.4.5h.1l32.5-1.8h.7a13,13,0,0,1,13,12.3l1.8,31.9a2.27,2.27,0,0,0,2.2,2.1,2,2,0,0,0,1.5-.6,21,21,0,0,1,13.1-6h1.1c11.7,0,21.5,10.4,22.2,23.7a26.78,26.78,0,0,1-5.4,17.9,20.58,20.58,0,0,1-15.1,8.2h-1.1a20,20,0,0,1-12.6-4.5,2.07,2.07,0,0,0-2.9.2,2.27,2.27,0,0,0-.6,1.6L311,387a12.91,12.91,0,0,1-12.2,13.7h-.1l-106.6,6h-.5Z" transform="translate(-5.7 -6)" fill="#d2def9"/><path d="M237.5,232.2c12.6,0,23.1,8.6,23.8,19.9a19.93,19.93,0,0,1-4.8,13.8,3,3,0,0,0,.5,4.2,4,4,0,0,0,1.8.7h.2l32.5-1.8h.7a12.36,12.36,0,0,1,12.3,11.6l1.8,31.9a3,3,0,0,0,3,2.8,2.52,2.52,0,0,0,2-.9,19.6,19.6,0,0,1,12.6-5.7H325c11.3,0,20.8,10.1,21.5,23,.8,13.3-8.1,24.7-19.9,25.3h-1.1a19.63,19.63,0,0,1-12.1-4.3,2.79,2.79,0,0,0-1.8-.6,3,3,0,0,0-3,3v.2l1.8,31.9a12.3,12.3,0,0,1-11.5,13h0l-106.6,6h-.7a12.36,12.36,0,0,1-12.3-11.6l-6-106.6a12.3,12.3,0,0,1,11.5-13h.1l32.6-1.9a3,3,0,0,0,2.8-3.2,3.38,3.38,0,0,0-.9-1.9,19.47,19.47,0,0,1-6.3-13.2c-.7-11.7,9.6-21.8,23-22.6a3.3,3.3,0,0,0,1.4,0m.1-1.4H236a27.41,27.41,0,0,0-17.7,7.6,20.87,20.87,0,0,0-1.2,29.5,15.93,15.93,0,0,0,1.3,1.3,1.56,1.56,0,0,1,.4,1.6,1.38,1.38,0,0,1-1.3,1L185,273.6a13.76,13.76,0,0,0-13,14.5l6,106.6a13.81,13.81,0,0,0,13.8,13h.8l106.6-6a13.76,13.76,0,0,0,13-14.5l-1.8-31.9a1.5,1.5,0,0,1,.4-1.1,1.48,1.48,0,0,1,2-.2,20.71,20.71,0,0,0,13.1,4.6H327a21.28,21.28,0,0,0,15.7-8.5,27.74,27.74,0,0,0,5.6-18.4c-.8-13.7-10.9-24.4-23-24.4h-1.1a20.74,20.74,0,0,0-13.6,6.2,1.28,1.28,0,0,1-1,.4,1.45,1.45,0,0,1-1.5-1.4l-1.8-31.9a13.81,13.81,0,0,0-13.8-13h-.8l-32.5,1.8h-.1a1.29,1.29,0,0,1-1.3-.9,1.57,1.57,0,0,1,.2-1.6,21.09,21.09,0,0,0,5.1-14.8c-1-12-12.1-21.3-25.5-21.3Z" transform="translate(-5.7 -6)" fill="#fff"/><g clip-path="url(#clip-path-4)"><g opacity="0.35"><path d="M116.5,362.9a3.11,3.11,0,1,1,.3-.1A.44.44,0,0,1,116.5,362.9Z" transform="translate(-5.7 -6)" fill="#fff"/><path d="M142.9,356.3a2.89,2.89,0,1,1,2.1-3.5h0a2.89,2.89,0,0,1-2.1,3.5Z" transform="translate(-5.7 -6)" fill="#fff"/><path d="M169.2,349.8a2.86,2.86,0,0,1-3.5-2.1,2.82,2.82,0,0,1,2.1-3.5,2.86,2.86,0,0,1,3.5,2.1h0a2.94,2.94,0,0,1-2.1,3.5Z" transform="translate(-5.7 -6)" fill="#fff"/><path d="M195.5,343.2a2.89,2.89,0,1,1,2.1-3.5h0A2.86,2.86,0,0,1,195.5,343.2Z" transform="translate(-5.7 -6)" fill="#fff"/><path d="M221.8,336.6a2.89,2.89,0,0,1-1.4-5.6,2.86,2.86,0,0,1,3.5,2.1,2.82,2.82,0,0,1-2.1,3.5Z" transform="translate(-5.7 -6)" fill="#fff"/><path d="M248.1,330.1a2.89,2.89,0,1,1,2.1-3.5h0A2.86,2.86,0,0,1,248.1,330.1Z" transform="translate(-5.7 -6)" fill="#fff"/><path d="M274.5,323.5a2.89,2.89,0,1,1,2.1-3.5A2.89,2.89,0,0,1,274.5,323.5Z" transform="translate(-5.7 -6)" fill="#fff"/><path d="M122,384.5a2.86,2.86,0,0,1-3.5-2.1,2.82,2.82,0,0,1,2.1-3.5,2.86,2.86,0,0,1,3.5,2.1h0a3,3,0,0,1-2.1,3.5Z" transform="translate(-5.7 -6)" fill="#fff"/><path d="M148.3,377.9a2.89,2.89,0,1,1,2.1-3.5h0A2.92,2.92,0,0,1,148.3,377.9Z" transform="translate(-5.7 -6)" fill="#fff"/><path d="M174.6,371.4a2.86,2.86,0,0,1-3.5-2.1,2.82,2.82,0,0,1,2.1-3.5,2.86,2.86,0,0,1,3.5,2.1h0A2.94,2.94,0,0,1,174.6,371.4Z" transform="translate(-5.7 -6)" fill="#fff"/><path d="M200.9,364.8a2.89,2.89,0,1,1,2.1-3.5h0A2.89,2.89,0,0,1,200.9,364.8Z" transform="translate(-5.7 -6)" fill="#fff"/><path d="M227.2,358.2a2.89,2.89,0,1,1,2.1-3.5h0A2.78,2.78,0,0,1,227.2,358.2Z" transform="translate(-5.7 -6)" fill="#fff"/><path d="M253.6,351.7a2.89,2.89,0,1,1,2.1-3.5h0A3,3,0,0,1,253.6,351.7Z" transform="translate(-5.7 -6)" fill="#fff"/><path d="M279.9,345.1a2.89,2.89,0,1,1,2.1-3.5,2.89,2.89,0,0,1-2.1,3.5Z" transform="translate(-5.7 -6)" fill="#fff"/><path d="M127.3,406.1a2.86,2.86,0,0,1-3.5-2.1,2.82,2.82,0,0,1,2.1-3.5,2.86,2.86,0,0,1,3.5,2.1h0a2.82,2.82,0,0,1-2.1,3.5Z" transform="translate(-5.7 -6)" fill="#fff"/><path d="M153.7,399.5a2.89,2.89,0,1,1,2.1-3.5h0A2.92,2.92,0,0,1,153.7,399.5Z" transform="translate(-5.7 -6)" fill="#fff"/><path d="M180,393a2.86,2.86,0,0,1-3.5-2.1,2.82,2.82,0,0,1,2.1-3.5,2.86,2.86,0,0,1,3.5,2.1h0A3,3,0,0,1,180,393Z" transform="translate(-5.7 -6)" fill="#fff"/><path d="M206.3,386.4a2.89,2.89,0,1,1,2.1-3.5h0A2.89,2.89,0,0,1,206.3,386.4Z" transform="translate(-5.7 -6)" fill="#fff"/><path d="M232.6,379.9a2.89,2.89,0,1,1,2.1-3.5,2.86,2.86,0,0,1-2.1,3.5Z" transform="translate(-5.7 -6)" fill="#fff"/><path d="M258.9,373.3a2.89,2.89,0,1,1,2.1-3.5h0A2.86,2.86,0,0,1,258.9,373.3Z" transform="translate(-5.7 -6)" fill="#fff"/><circle cx="278.9" cy="357.9" r="2.9" fill="#fff"/><path d="M132.7,427.7a2.86,2.86,0,0,1-3.5-2.1,2.82,2.82,0,0,1,2.1-3.5,2.86,2.86,0,0,1,3.5,2.1h0a2.82,2.82,0,0,1-2.1,3.5Z" transform="translate(-5.7 -6)" fill="#fff"/><path d="M159.1,421.1a2.88,2.88,0,0,1-1.7-5.5c.1,0,.2-.1.3-.1a2.87,2.87,0,0,1,3.4,2.3A3,3,0,0,1,159.1,421.1Z" transform="translate(-5.7 -6)" fill="#fff"/><path d="M185.4,414.6a2.89,2.89,0,1,1,2.1-3.5h0A3,3,0,0,1,185.4,414.6Z" transform="translate(-5.7 -6)" fill="#fff"/><path d="M211.7,408a2.89,2.89,0,1,1,2.1-3.5A2.89,2.89,0,0,1,211.7,408Z" transform="translate(-5.7 -6)" fill="#fff"/><path d="M238,401.5a2.89,2.89,0,1,1,2.1-3.5,2.86,2.86,0,0,1-2.1,3.5Z" transform="translate(-5.7 -6)" fill="#fff"/><path d="M264.3,394.9a2.89,2.89,0,1,1,2.1-3.5h0a2.86,2.86,0,0,1-2.1,3.5Z" transform="translate(-5.7 -6)" fill="#fff"/><circle cx="284.1" cy="378.7" r="2.9" fill="#fff"/><path d="M138.1,449.3a2.86,2.86,0,0,1-3.5-2.1,2.82,2.82,0,0,1,2.1-3.5,2.86,2.86,0,0,1,3.5,2.1h0A2.82,2.82,0,0,1,138.1,449.3Z" transform="translate(-5.7 -6)" fill="#fff"/><path d="M164.4,442.8a2.88,2.88,0,0,1-1.7-5.5c.1,0,.2-.1.3-.1a2.87,2.87,0,0,1,3.4,2.3A2.94,2.94,0,0,1,164.4,442.8Z" transform="translate(-5.7 -6)" fill="#fff"/><path d="M190.8,436.2a2.89,2.89,0,1,1,2.1-3.5h0A3,3,0,0,1,190.8,436.2Z" transform="translate(-5.7 -6)" fill="#fff"/><path d="M217.1,429.6a2.89,2.89,0,1,1,2.1-3.5A2.78,2.78,0,0,1,217.1,429.6Z" transform="translate(-5.7 -6)" fill="#fff"/><path d="M243.4,423.1a2.89,2.89,0,1,1,2.1-3.5,2.82,2.82,0,0,1-2.1,3.5Z" transform="translate(-5.7 -6)" fill="#fff"/><circle cx="263.3" cy="407.7" r="2.9" fill="#fff"/><path d="M296,409.9a2.89,2.89,0,1,1,2.1-3.5,2.78,2.78,0,0,1-2.1,3.5Z" transform="translate(-5.7 -6)" fill="#fff"/><path d="M143.5,470.9a2.86,2.86,0,0,1-3.5-2.1,2.82,2.82,0,0,1,2.1-3.5,2.86,2.86,0,0,1,3.5,2.1h0A2.85,2.85,0,0,1,143.5,470.9Z" transform="translate(-5.7 -6)" fill="#fff"/><path d="M169.8,464.4a2.88,2.88,0,1,1-1.7-5.5c.1,0,.2-.1.3-.1a2.87,2.87,0,0,1,3.4,2.3A2.94,2.94,0,0,1,169.8,464.4Z" transform="translate(-5.7 -6)" fill="#fff"/><path d="M196.1,457.8a2.89,2.89,0,1,1,2.1-3.5,2.82,2.82,0,0,1-2.1,3.5Z" transform="translate(-5.7 -6)" fill="#fff"/><path d="M222.5,451.2a2.89,2.89,0,1,1,2.1-3.5,2.85,2.85,0,0,1-2.1,3.5Z" transform="translate(-5.7 -6)" fill="#fff"/><path d="M248.8,444.7a2.89,2.89,0,1,1,2.1-3.5,2.94,2.94,0,0,1-2.1,3.5Z" transform="translate(-5.7 -6)" fill="#fff"/><path d="M275.1,438.1a2.89,2.89,0,1,1,2.1-3.5h0a2.82,2.82,0,0,1-2.1,3.5Z" transform="translate(-5.7 -6)" fill="#fff"/><path d="M301.4,431.5a2.89,2.89,0,1,1,2.1-3.5h0A2.78,2.78,0,0,1,301.4,431.5Z" transform="translate(-5.7 -6)" fill="#fff"/><path d="M148.9,492.5a2.86,2.86,0,0,1-3.5-2.1,2.82,2.82,0,0,1,2.1-3.5A2.86,2.86,0,0,1,151,489h0A2.85,2.85,0,0,1,148.9,492.5Z" transform="translate(-5.7 -6)" fill="#fff"/><path d="M175.2,486a2.89,2.89,0,1,1,2.1-3.5A2.86,2.86,0,0,1,175.2,486Z" transform="translate(-5.7 -6)" fill="#fff"/><path d="M201.5,479.4a2.89,2.89,0,1,1,2.1-3.5,2.82,2.82,0,0,1-2.1,3.5Z" transform="translate(-5.7 -6)" fill="#fff"/><path d="M227.9,472.9a2.89,2.89,0,1,1,2.1-3.5,3,3,0,0,1-2.1,3.5Z" transform="translate(-5.7 -6)" fill="#fff"/><path d="M254.2,466.3a2.89,2.89,0,1,1,2.1-3.5,2.94,2.94,0,0,1-2.1,3.5Z" transform="translate(-5.7 -6)" fill="#fff"/><circle cx="274" cy="449.9" r="2.9" fill="#fff"/><path d="M306.8,453.1a2.89,2.89,0,1,1,2.1-3.5h0A2.82,2.82,0,0,1,306.8,453.1Z" transform="translate(-5.7 -6)" fill="#fff"/><path d="M154.3,514.1a2.89,2.89,0,1,1,2.1-3.5h0A2.89,2.89,0,0,1,154.3,514.1Z" transform="translate(-5.7 -6)" fill="#fff"/><path d="M180.6,507.6a2.89,2.89,0,1,1,2.1-3.5A2.82,2.82,0,0,1,180.6,507.6Z" transform="translate(-5.7 -6)" fill="#fff"/><circle cx="200.5" cy="492.2" r="2.9" fill="#fff"/><path d="M233.2,494.5a3.11,3.11,0,1,1,.3-.1A.77.77,0,0,0,233.2,494.5Z" transform="translate(-5.7 -6)" fill="#fff"/><circle cx="253.2" cy="479.1" r="2.9" fill="#fff"/><path d="M285.9,481.3a2.89,2.89,0,1,1,2.1-3.5h0a2.89,2.89,0,0,1-2.1,3.5Z" transform="translate(-5.7 -6)" fill="#fff"/><path d="M312.2,474.8a2.89,2.89,0,1,1,2.1-3.5h0A2.86,2.86,0,0,1,312.2,474.8Z" transform="translate(-5.7 -6)" fill="#fff"/></g></g><line x1="78.3" y1="384.3" x2="114.7" y2="384.1" fill="none" stroke="#1a3987" stroke-linejoin="round" stroke-width="0.75"/><path d="M114.5,387.4l-28.3-2.1-9.3,1,.2,35.2a1.58,1.58,0,0,0,1.6,1.6h0a1.64,1.64,0,0,0,1.5-1l7.2-15.7,29.5,3.5" transform="translate(-5.7 -6)" fill="#ffcbbb"/><path d="M77.5,424.6c1.2-.4,2.5-1,2.8-1.7l7.2-16.7c-3.7-9.2-.9-21.1-.9-21.1L74,384.3a.77.77,0,0,0-.8.7h0l.2,39.3C73.5,425.2,77.4,424.6,77.5,424.6Z" transform="translate(-5.7 -6)" fill="#d2def9"/><path d="M86.7,409.9a25.45,25.45,0,0,0-3.9-2.4" transform="translate(-5.7 -6)" fill="none" stroke="#1a3987" stroke-linejoin="round" stroke-width="0.75"/><path d="M85.4,411.9a13.5,13.5,0,0,0-3.3-1.9" transform="translate(-5.7 -6)" fill="none" stroke="#1a3987" stroke-linejoin="round" stroke-width="0.75"/><path d="M84.5,413.7a19.23,19.23,0,0,0-3.1-1.8" transform="translate(-5.7 -6)" fill="none" stroke="#1a3987" stroke-linejoin="round" stroke-width="0.75"/><line x1="70.3" y1="378.5" x2="70.5" y2="418.8" fill="none" stroke="#1a3987" stroke-linejoin="round" stroke-width="0.75"/><path d="M82,384.8s-.1,9.3-6,10.2" transform="translate(-5.7 -6)" fill="none" stroke="#1a3987" stroke-linejoin="round" stroke-width="0.75"/><path d="M81.7,419.5s-3.8-2.7-5.6-3.2" transform="translate(-5.7 -6)" fill="none" stroke="#1a3987" stroke-linejoin="round" stroke-width="0.75"/><path d="M164,329.3c.4.9,5.7,38.2,9.5,64.3,2.4,16.3,2.7,26.6-21.1,24.7-32.7-2.7-55.5-4.2-55.5-4.2l-.7-29.3,45,2.1-5.9-29s-10.9-14.5-2.9-31.1" transform="translate(-5.7 -6)" fill="#ee5050"/><line x1="95.2" y1="379" x2="96.4" y2="408.1" fill="none" stroke="#a52f2d" stroke-miterlimit="10" stroke-width="0.75"/><path d="M156.1,348.6l7.9,45.9a2,2,0,0,1-1.7,2.3h-.4l-65.6-4" transform="translate(-5.7 -6)" fill="none" stroke="#a52f2d" stroke-miterlimit="10" stroke-width="0.75"/><path d="M197.9,383.6l-6,28.3-.2,9.3,36.4-.2a1.58,1.58,0,0,0,1.6-1.6h0a1.64,1.64,0,0,0-1-1.5L213,410.7l7.4-29.5" transform="translate(-5.7 -6)" fill="#ffcbbb"/><path d="M231.3,420.6c-.4-1.2-1.1-2.5-1.8-2.8l-16.7-7.2c-9.2,3.7-21.1.9-21.1.9l-2.1,12.6a.79.79,0,0,0,.8.8l40.6-.2C231.8,424.6,231.3,420.6,231.3,420.6Z" transform="translate(-5.7 -6)" fill="#d2def9"/><path d="M216.5,411.4a25.45,25.45,0,0,0-2.4,3.9" transform="translate(-5.7 -6)" fill="none" stroke="#1a3987" stroke-linejoin="round" stroke-width="0.75"/><path d="M218.6,412.6a14.13,14.13,0,0,0-1.9,3.4" transform="translate(-5.7 -6)" fill="none" stroke="#1a3987" stroke-linejoin="round" stroke-width="0.75"/><path d="M220.4,413.5a19.23,19.23,0,0,0-1.8,3.1" transform="translate(-5.7 -6)" fill="none" stroke="#1a3987" stroke-linejoin="round" stroke-width="0.75"/><line x1="184.2" y1="416.1" x2="225.7" y2="415.9" fill="none" stroke="#1a3987" stroke-linejoin="round" stroke-width="0.75"/><path d="M191.1,416s9.8.2,10.6,6.1" transform="translate(-5.7 -6)" fill="none" stroke="#1a3987" stroke-linejoin="round" stroke-width="0.75"/><path d="M226.1,416.4s-2.7,3.8-3.2,5.6" transform="translate(-5.7 -6)" fill="none" stroke="#1a3987" stroke-linejoin="round" stroke-width="0.75"/><path d="M179.1,320.7l2.1,8.2a2.59,2.59,0,0,0,2.6,2H212c6.9,0,14.2.2,18.1,6.2,3.2,4.9,2.1,13.1-.6,22.5-2.3,8.1-10.5,44.8-10.5,44.8H190l8.2-43.8H164.7s-21.7.2-18.7-21.5" transform="translate(-5.7 -6)" fill="#ee5050"/><line x1="185.1" y1="393.7" x2="214.1" y2="393.7" fill="none" stroke="#a52f2d" stroke-miterlimit="10" stroke-width="0.75"/><path d="M168.7,360.4h-4s-20.8,0-21-21.5" transform="translate(-5.7 -6)" fill="none" stroke="#a52f2d" stroke-miterlimit="10" stroke-width="0.75"/><path d="M166.4,327.7s.5,24.3,21,24.3h15.4a3.08,3.08,0,0,1,3.1,2.9,1.7,1.7,0,0,1-.1.7l-10.2,48.5" transform="translate(-5.7 -6)" fill="none" stroke="#a52f2d" stroke-miterlimit="10" stroke-width="0.75"/><path d="M168.4,337.8c.2.4,8.6-1.9,8.4-10.1" transform="translate(-5.7 -6)" fill="none" stroke="#a52f2d" stroke-miterlimit="10" stroke-width="0.75"/><path d="M150.7,341.2a33.36,33.36,0,0,0,8.4-1.1" transform="translate(-5.7 -6)" fill="none" stroke="#a52f2d" stroke-miterlimit="10" stroke-width="0.75"/><path d="M129.4,341.2s4.1.1,7.2,0" transform="translate(-5.7 -6)" fill="none" stroke="#a52f2d" stroke-miterlimit="10" stroke-width="0.75"/><path d="M154.2,239.7s10-31.1,28.7-56.2l-12.8-7.8c-20.2,21.9-33.5,58.6-33.5,58.6" transform="translate(-5.7 -6)" fill="#ffcbbb"/><path d="M128.8,292.6s-4.2-38.5,11.7-70.7l18.7,6.1-4.9,24.6" transform="translate(-5.7 -6)" fill="#0948b3"/><line x1="133.3" y1="219.6" x2="151.7" y2="225.9" fill="none" stroke="#1a3987" stroke-miterlimit="10" stroke-width="0.75"/><path d="M180.2,187.1c3-4.6,13.9-16.5,13.4-17.5s-4.4,3.1-4.7,2.2,5.3-7.7,4.5-8.5c-1.1-1.2-6.4,6.1-6.4,6.1s5.4-8.2,4.2-9c-.9-.5-5.3,5.6-7.3,7.7,1.9-2.6,4.4-7.1,3.5-7.6s-4,3.6-6.6,6.6c1.4-2,3.8-5.8,3-6.4s-11.2,10.5-19.4,21.7" transform="translate(-5.7 -6)" fill="#ffcbbb"/><path d="M166.6,282.8s19.1,7.3,33.2,8.3c18.4,1.2,39.8-5.7,39.8-5.7s2.8-15.1-4.5-14.4c-9.1,1.7-24.7,2.8-36.5,1.4-7.4-.9-23-9.3-23-9.3" transform="translate(-5.7 -6)" fill="#ffcbbb"/><path d="M230.8,271.8c5.5-.7,20.9-5.4,21.6-4.5s-4.8,2.6-4.1,3.3,9.2-1.4,9.6-.4c.6,1.5-8.3,3.1-8.3,3.1s9.8-1.4,9.9.1c.1,1-7.3,2.4-10.1,3.3,3.1-.6,8.3-.9,8.4.1s-5,2.1-8.8,3.1c2.4-.4,6.9-.9,7,.1s-11.9,4.4-23.4,7.1" transform="translate(-5.7 -6)" fill="#ffcbbb"/><path d="M146.8,246.7l-2.6,13.1s7.4,7.5,15.1.5l-.1-8.8Z" transform="translate(-5.7 -6)" fill="#ffcbbb"/><path d="M160.7,234.4s6.3,12.6,2.4,16.8c-2,2.2-5,3-7.6,1-2-1.5-9.6-10.5-8.5-12.2C151,233.3,160.7,234.4,160.7,234.4Z" transform="translate(-5.7 -6)" fill="#ffcbbb"/><path d="M163.2,241.4s2.3,2.3,2.3,3.8c0,.7-2.3.8-2.3.8" transform="translate(-5.7 -6)" fill="#ffcbbb"/><path d="M163.1,247.3l-4.1-.6C158.8,248.3,161.9,252.1,163.1,247.3Z" transform="translate(-5.7 -6)" fill="#fff"/><path d="M160.1,241.2v.6c0,.1,0,.2.1.2a.1.1,0,0,0,.1.1l.1.1c.1.1.1.1.2.1a.52.52,0,0,0,.4-.2h0v-.3c0-.1-.1-.1-.1-.2v.1a.6.6,0,0,1-.1-.4v-.2c0-.1-.1-.2-.3-.2a1.38,1.38,0,0,0-.4.3Z" transform="translate(-5.7 -6)" fill="#00276f"/><path d="M158.1,240.5a2.26,2.26,0,0,1,1.9-1.1,1.34,1.34,0,0,1,.9.2" transform="translate(-5.7 -6)" fill="none" stroke="#00276f" stroke-linecap="round" stroke-linejoin="round" stroke-width="0.5"/><path d="M145.5,235.3c.7-4.5,5.2-5.4,13.6-4.1,1.1.2,3.2-.4,3.6.6.6,1.4.5,4.1-1,5.2-1.3,1-3,.4-4.4,1-2.3.8-1.1,3-2.4,4.6-2,2.7-.7,6.6-4,8.6-1.9,1.2-4.3.8-6.5.4a1.33,1.33,0,0,1-.8-.3c-.8-.6-.4-2.6-.7-3.5a28.33,28.33,0,0,1-.9-8.7C142.5,236.6,144.5,235,145.5,235.3Z" transform="translate(-5.7 -6)" fill="#0b0b3a"/><path d="M155.1,243.2c-.4-2.6-2.4-1.7-3.1-.8-.9,1.2.5,4.1,1.2,4.6,1.5,1.1,2.8,1.1,3-.2" transform="translate(-5.7 -6)" fill="#ffcbbb"/><path d="M159,253.4a15.27,15.27,0,0,1-4.6-2.3" transform="translate(-5.7 -6)" fill="none" stroke="#ef977f" stroke-linejoin="round" stroke-width="0.75"/><path d="M144.1,255.9s-11.4,4.8-14.9,22.9c-1.6,8,1.4,51.1,1.4,51.1,24.7,4.8,51.3-2.3,51.3-2.3s-3.1-28.1-4.4-38.7c-3.2-24.4-20-32.2-20-32.2Z" transform="translate(-5.7 -6)" fill="#0948b3"/><path d="M157.4,256.6s9.5,1.5,15.6,4.4,19.8,9.6,19.8,9.6l-7.1,19.5-24.9-7.9" transform="translate(-5.7 -6)" fill="#0948b3"/><line x1="171.5" y1="281.1" x2="157.5" y2="277" fill="none" stroke="#1a3987" stroke-miterlimit="10" stroke-width="0.75"/><line x1="182.9" y1="262.5" x2="176.2" y2="282.6" fill="none" stroke="#1a3987" stroke-miterlimit="10" stroke-width="0.75"/><path d="M130.4,326.8a162.31,162.31,0,0,0,51.1-1.9" transform="translate(-5.7 -6)" fill="none" stroke="#1a3987" stroke-miterlimit="10" stroke-width="0.75"/><path d="M513.7,381l6,28.3-1,9.3-35.2-.2a1.58,1.58,0,0,1-1.6-1.6h0a1.64,1.64,0,0,1,1-1.5l15.8-7.2-7.4-29.5" transform="translate(-5.7 -6)" fill="#ffcbbb"/><path d="M480.3,418c.4-1.2,1-2.5,1.7-2.8l16.7-7.2c9.2,3.7,21.1.9,21.1.9l.9,12.5a.77.77,0,0,1-.7.8h0l-39.3-.2C479.8,422.1,480.3,418.1,480.3,418Z" transform="translate(-5.7 -6)" fill="#d2def9"/><path d="M495.1,408.8a17.4,17.4,0,0,1,2.3,4" transform="translate(-5.7 -6)" fill="none" stroke="#5565aa" stroke-miterlimit="10" stroke-width="0.75"/><path d="M493,410.1a14.13,14.13,0,0,1,1.9,3.4" transform="translate(-5.7 -6)" fill="none" stroke="#5565aa" stroke-miterlimit="10" stroke-width="0.75"/><path d="M491.3,411a32.07,32.07,0,0,1,1.9,3.1" transform="translate(-5.7 -6)" fill="none" stroke="#5565aa" stroke-miterlimit="10" stroke-width="0.75"/><line x1="514.8" y1="413.6" x2="474.5" y2="413.4" fill="none" stroke="#5565aa" stroke-miterlimit="10" stroke-width="0.75"/><path d="M520.1,413.6s-9.3.1-10.2,6" transform="translate(-5.7 -6)" fill="none" stroke="#5565aa" stroke-miterlimit="10" stroke-width="0.75"/><path d="M485.5,413.8s2.7,3.8,3.2,5.6" transform="translate(-5.7 -6)" fill="none" stroke="#5565aa" stroke-miterlimit="10" stroke-width="0.75"/><path d="M501.1,278.1s-22.5,50.4-21.4,68.2c1.1,16.6,13.7,58.8,13.7,58.8l27-5s-12.9-52-12.2-57.4,17.2-42.4,17.2-42.4,6.4-8.7,4.2-23.7" transform="translate(-5.7 -6)" fill="#0948b3"/><path d="M516,401s-12.6-52.5-11.9-57.9,16.3-41.7,16.3-41.7" transform="translate(-5.7 -6)" fill="none" stroke="#1a3987" stroke-linejoin="round" stroke-width="0.75"/><line x1="513.6" y1="389.2" x2="486.5" y2="394.7" fill="none" stroke="#1a3987" stroke-linejoin="round" stroke-width="0.75"/><path d="M552.8,367.8l12.6,26.3,3.1,8.8-32,14.8a1.54,1.54,0,0,1-2.1-.8h0a1.53,1.53,0,0,1,.3-1.8l11.2-13.2-14.4-26.8" transform="translate(-5.7 -6)" fill="#ffcbbb"/><path d="M533.4,418.7a4.89,4.89,0,0,1,.4-3.3l12-13.6c9.9-.5,19.5-8.1,19.5-8.1l6.2,11a.73.73,0,0,1-.4,1l-35.7,16.5C534.7,422.6,533.4,418.8,533.4,418.7Z" transform="translate(-5.7 -6)" fill="#d2def9"/><path d="M542.9,404.1a19.67,19.67,0,0,1,3.8,2.6" transform="translate(-5.7 -6)" fill="none" stroke="#5565aa" stroke-miterlimit="10" stroke-width="0.75"/><path d="M541.5,406.1a22.74,22.74,0,0,1,3.2,2.2" transform="translate(-5.7 -6)" fill="none" stroke="#5565aa" stroke-miterlimit="10" stroke-width="0.75"/><path d="M540.3,407.7a29.77,29.77,0,0,1,2.9,2" transform="translate(-5.7 -6)" fill="none" stroke="#5565aa" stroke-miterlimit="10" stroke-width="0.75"/><line x1="564.8" y1="397.1" x2="528.1" y2="414" fill="none" stroke="#5565aa" stroke-miterlimit="10" stroke-width="0.75"/><path d="M567.6,397.8s-8.4,4-6.7,9.7" transform="translate(-5.7 -6)" fill="none" stroke="#5565aa" stroke-miterlimit="10" stroke-width="0.75"/><path d="M536.3,412.7s4.1,2.3,5.3,3.7" transform="translate(-5.7 -6)" fill="none" stroke="#5565aa" stroke-miterlimit="10" stroke-width="0.75"/><path d="M518.9,279.7s-8.6,47.6-4.5,65c4.5,19.5,24.1,52.5,24.1,52.5l24.3-12.1s-21-40.1-21-48.8c0-5.4,4.8-38.8,4.8-38.8s4.8-9.7.1-24.1" transform="translate(-5.7 -6)" fill="#0948b3"/><path d="M557.2,387.9s-21-39.2-21-50.4c0-5.4,3.3-30.7,4.8-38.8s4.4-17.5.1-24.1" transform="translate(-5.7 -6)" fill="none" stroke="#1a3987" stroke-linejoin="round" stroke-width="0.75"/><path d="M513.3,328.5c1.3-13.4,2.8-31.3,4.8-47.3" transform="translate(-5.7 -6)" fill="none" stroke="#1a3987" stroke-linejoin="round" stroke-width="0.75"/><path d="M532.5,281.2s1.7,4.1,10.6,6.5" transform="translate(-5.7 -6)" fill="none" stroke="#1a3987" stroke-linejoin="round" stroke-width="0.75"/><path d="M514.3,282.2s-1.3,9.8-.5,11.1c.4.6,3.2,1.1,3.2,1.1" transform="translate(-5.7 -6)" fill="none" stroke="#1a3987" stroke-linejoin="round" stroke-width="0.75"/><path d="M497.7,286s5.4.1,8.5-3.3" transform="translate(-5.7 -6)" fill="none" stroke="#1a3987" stroke-linejoin="round" stroke-width="0.75"/><line x1="554.9" y1="374.9" x2="530.3" y2="386.8" fill="none" stroke="#1a3987" stroke-linejoin="round" stroke-width="0.75"/><path d="M508.6,206.7s-10.2,2.9-11.7,22.6c-1.4,8.1,2,52.8,2,52.8,24.8,4.3,51.2-3.4,51.2-3.4s-4.6-28-6.4-38.6C539.3,213.6,521,208,521,208Z" transform="translate(-5.7 -6)" fill="#ee5050"/><path d="M512.9,206.9a132.54,132.54,0,0,0-15.4-21.1c-12.4-13.7-30.9-25.2-30.9-25.2s-12.6,8.8-6.8,13.5c7.6,5.1,17.4,15.4,24.9,24.7,4.6,5.8,14,23.5,14,23.5" transform="translate(-5.7 -6)" fill="#ffcbbb"/><path d="M463.3,176.4c-4.4-3.3-18.8-10.8-18.6-11.9s5.2,1.4,5.2.5-7.6-5.4-7.1-6.5c.6-1.5,8.1,3.5,8.1,3.5s-7.9-5.9-7-7c.6-.8,6.9,3.4,9.5,4.7-2.6-1.8-6.6-5.1-5.9-5.9s5,2,8.4,3.9c-2-1.4-5.6-4.2-5-4.9s11.6,4.8,22,12" transform="translate(-5.7 -6)" fill="#ffcbbb"/><path d="M531.7,239.6s-9.2,18.3-19,28.4c-12.8,13.3-33.2,22.6-33.2,22.6s-12.3-9.3-6.3-13.7c7.8-4.9,20.2-14.6,27.9-23.6,4.9-5.6,12.6-23.2,12.6-23.2" transform="translate(-5.7 -6)" fill="#ffcbbb"/><path d="M476.8,274.7c-4.5,3.1-19.1,10.1-19,11.2s5.3-1.3,5.2-.3-7.8,5.1-7.4,6.2c.6,1.5,8.2-3.2,8.2-3.2s-8.1,5.6-7.3,6.7c.6.8,7-3.2,9.6-4.4-2.7,1.7-6.7,4.9-6.1,5.7s5.1-1.8,8.5-3.6c-2.1,1.3-5.7,4-5.1,4.8s11.8-4.8,22.1-10.5" transform="translate(-5.7 -6)" fill="#ffcbbb"/><path d="M513.3,225.4c-2.6,8.6-9.3,22.9-9.3,22.9l18.4,9.7s9.5-11.6,13-25.4" transform="translate(-5.7 -6)" fill="#ee5050"/><path d="M522.4,258s10.3-14.4,12.1-22.1" transform="translate(-5.7 -6)" fill="none" stroke="#a52f2d" stroke-miterlimit="10" stroke-width="0.75"/><path d="M504,248.3s6.8-13.2,8.3-19.6" transform="translate(-5.7 -6)" fill="none" stroke="#a52f2d" stroke-miterlimit="10" stroke-width="0.75"/><path d="M496.6,235.1c-.2-7.2-3.7-22.2-14-36l16.2-13s14.3,11.4,18.3,21.5" transform="translate(-5.7 -6)" fill="#ee5050"/><path d="M505.4,186s-4.1,11.5-.5,15.2c1.9,1.9,7.6,2.3,10,.4,1.8-1.4,4.4-10.3,3.4-11.8C514.5,183.8,505.4,186,505.4,186Z" transform="translate(-5.7 -6)" fill="#ffcbbb"/><path d="M507.7,191.4s-2.2,2.7-2.1,3.5,2,1.1,2,1.1" transform="translate(-5.7 -6)" fill="none" stroke="#ef977f" stroke-linejoin="round" stroke-width="0.5"/><path d="M505.4,196.9l5.2,1.3a3.45,3.45,0,0,1-4.1,1.7C504.5,199.2,505.4,196.9,505.4,196.9Z" transform="translate(-5.7 -6)" fill="#fff"/><path d="M505.7,190.2l-.1.2-.1.2c-.1.1-.1.3-.2.4v.3l.1.1.1.1h.3a.22.22,0,0,0,.2-.2c0-.1.1-.2.1-.3v-.2l.1-.2v-.2c0-.2,0-.3-.2-.4s-.3,0-.3.2Z" transform="translate(-5.7 -6)" fill="#00276f"/><path d="M507.5,189.2a1.34,1.34,0,0,0-1.9-.5.1.1,0,0,0-.1.1" transform="translate(-5.7 -6)" fill="none" stroke="#00276f" stroke-linecap="round" stroke-linejoin="round" stroke-width="0.5"/><path d="M511.5,192.3l-.1.2-.1.2c-.1.1-.1.2-.1.4v.3a.22.22,0,0,0,.2.2h.3l.1-.1c0-.1.1-.1.1-.2s.1-.2.1-.4v-.7c0-.1-.1-.1-.2-.1h-.2a.35.35,0,0,1-.1.2Z" transform="translate(-5.7 -6)" fill="#00276f"/><path d="M511.5,190.3a2.5,2.5,0,0,1,2.5,1.4" transform="translate(-5.7 -6)" fill="none" stroke="#00276f" stroke-linecap="round" stroke-linejoin="round" stroke-width="0.5"/><path d="M518.7,196.5,521,208s-8.7,6.5-13.5-.4l-.2-7.5Z" transform="translate(-5.7 -6)" fill="#ffcbbb"/><path d="M522.9,194.5a5.64,5.64,0,0,1,.4-1.2c.3-1,.9-1.8,1.3-2.8a5.16,5.16,0,0,0-1.5-5.6,4,4,0,0,1-2-2.9,2.73,2.73,0,0,0-1.3-1.5c-1.4-.7-3.2.3-4.5-.5a5.55,5.55,0,0,1-.8-.6c-2-1.5-4.2-1.1-6.3-.4a7.44,7.44,0,0,0-2.2,1.4c-.9.7-2.2.7-3.1,1.3a3.82,3.82,0,0,0-1.2,3.2,3,3,0,0,0,.2,1.3,2.54,2.54,0,0,0,1.2,1.1,7.4,7.4,0,0,0,3.9.2c1.3-.1,2.7-1,4-.5s1.5,1.9,3,2c.6,0,1.3-.1,1.6.4s.2,1.4.5,2,.8,1.1,1.2,1.6c.8,1.1,1.8,1.8,1.4,3.2-.3,1-1.3,2.5-.9,3.5.3.7,1.8.7,2.9-.2s1.5-2.6,1.8-3.9C522.7,195.5,522.8,195,522.9,194.5Z" transform="translate(-5.7 -6)" fill="#212237"/><path d="M517.5,194.8c1.1-1.8,2.2-1.6,2.8-.8.9,1.1-.3,3.8-1,4.3-1.3,1-2.5,1.1-2.8-.1" transform="translate(-5.7 -6)" fill="#ffcbbb"/><path d="M507.8,202.9a17,17,0,0,0,7.6-1.8" transform="translate(-5.7 -6)" fill="none" stroke="#ef977f" stroke-linejoin="round" stroke-width="0.75"/><path d="M496.4,232.5s.3-11.2-1-14.7" transform="translate(-5.7 -6)" fill="none" stroke="#a52f2d" stroke-miterlimit="10" stroke-width="0.75"/><path d="M506.4,209.7s2,3.6,7.6,3.4c6.3-.1,8.8-4.3,8.8-4.3" transform="translate(-5.7 -6)" fill="none" stroke="#a52f2d" stroke-miterlimit="10" stroke-width="0.75"/><path d="M397.6,150.2c-.6,5.3-4.6,17.6-3.8,18.1s2.6-4.2,3.2-3.7-1.5,7.7-.6,8c1.2.4,2.9-6.7,2.9-6.7s-1.3,7.8-.2,7.9c.9,0,2.3-5.6,2.9-7.8-.4,2.4-1,6.3-.1,6.3s1.9-3.3,2.6-6.3c-.3,1.9-1.2,5.7-.4,5.8s3.7-8.5,5.6-19.3" transform="translate(-5.7 -6)" fill="#ffcbbb"/><path d="M413.1,96.2c3.8,28.1-4.5,61.8-4.5,61.8L397,155.5s4.4-30.4-.5-57.2" transform="translate(-5.7 -6)" fill="#ffcbbb"/><path d="M388.8,71.2A25.8,25.8,0,0,1,405,76.9c7.7,6.1,9.7,20.1,9.7,20.1l-18.3,3.7s-1-11.8-1.1-15.8" transform="translate(-5.7 -6)" fill="#ee5050"/><path d="M395.7,100.7a61,61,0,0,0-2.2-10.3" transform="translate(-5.7 -6)" fill="none" stroke="#a52f2d" stroke-miterlimit="10" stroke-width="0.75"/><rect x="513.27" y="65.51" width="23" height="23" transform="translate(-7.51 134.46) rotate(-15.22)" fill="none" stroke="#91abe5" stroke-miterlimit="10" stroke-width="1.5"/><path d="M217.9,30.4a4.59,4.59,0,0,1-4.6,4.6,4.53,4.53,0,0,1-4.6-4.6,4.59,4.59,0,0,1,4.6-4.6h0A4.72,4.72,0,0,1,217.9,30.4Z" transform="translate(-5.7 -6)" fill="none" stroke="#91abe5" stroke-miterlimit="10" stroke-width="1.5"/><path d="M595.5,231.1a4.59,4.59,0,0,1-4.6,4.6,4.6,4.6,0,0,1,0-9.2h0A4.72,4.72,0,0,1,595.5,231.1Z" transform="translate(-5.7 -6)" fill="none" stroke="#91abe5" stroke-miterlimit="10" stroke-width="1.5"/><path d="M600,325.1a4.59,4.59,0,0,1-4.6,4.6,4.53,4.53,0,0,1-4.6-4.6,4.59,4.59,0,0,1,4.6-4.6h0A4.65,4.65,0,0,1,600,325.1Z" transform="translate(-5.7 -6)" fill="none" stroke="#91abe5" stroke-miterlimit="10" stroke-width="1.5"/><path d="M113,47.2l.5,3a2.81,2.81,0,0,0,2.8,2.3h2a2.89,2.89,0,0,1,2.8,2.3l.3,2a2.81,2.81,0,0,0,2.8,2.3h2a2.89,2.89,0,0,1,2.8,2.3l.3,2a2.81,2.81,0,0,0,2.8,2.3h2.4" transform="translate(-5.7 -6)" fill="none" stroke="#91abe5" stroke-miterlimit="10" stroke-width="1.5"/><path d="M492.7,125.8l3.1-.3a2.7,2.7,0,0,0,2.5-2.6l.1-2a2.7,2.7,0,0,1,2.5-2.6l2-.2a2.7,2.7,0,0,0,2.5-2.6l.1-2a2.7,2.7,0,0,1,2.5-2.6l2-.2a2.7,2.7,0,0,0,2.5-2.6l.1-2.4" transform="translate(-5.7 -6)" fill="none" stroke="#91abe5" stroke-miterlimit="10" stroke-width="1.5"/><path d="M587.2,170.1l-2.9.9a2.78,2.78,0,0,0-1.9,3.1l.3,2a3,3,0,0,1-1.8,3.1l-1.9.6a2.78,2.78,0,0,0-1.9,3.1l.3,2a2.89,2.89,0,0,1-1.8,3.1l-1.9.6a2.78,2.78,0,0,0-1.9,3.1l.4,2.4" transform="translate(-5.7 -6)" fill="none" stroke="#91abe5" stroke-miterlimit="10" stroke-width="1.5"/><path d="M603.8,303l2.5,1.7a2.77,2.77,0,0,0,3.6-.4l1.3-1.5a2.74,2.74,0,0,1,3.6-.4l1.7,1.1a2.77,2.77,0,0,0,3.6-.4l1.3-1.5a2.88,2.88,0,0,1,3.6-.5l1.7,1.1a2.77,2.77,0,0,0,3.6-.4l1.6-1.8" transform="translate(-5.7 -6)" fill="none" stroke="#91abe5" stroke-miterlimit="10" stroke-width="1.5"/><line x1="465.1" y1="65.1" x2="455.4" y2="72.8" fill="none" stroke="#91abe5" stroke-miterlimit="10" stroke-width="1.5"/><line x1="249.7" y1="83" x2="237.7" y2="80.1" fill="none" stroke="#91abe5" stroke-miterlimit="10" stroke-width="1.5"/></g></svg>