<?xml version="1.0" encoding="UTF-8"?>
<svg width="284px" height="24px" viewBox="0 0 284 24" version="1.1" xmlns="http://www.w3.org/2000/svg" xmlns:xlink="http://www.w3.org/1999/xlink">
    <!-- Generator: Sketch 62 (91390) - https://sketch.com -->
    <title>Path</title>
    <desc>Created with Sketch.</desc>
    <g id="Page-1" stroke="none" stroke-width="1" fill="none" fill-rule="evenodd">
        <g id="Group" fill="#f5f8fb" fill-rule="nonzero">
            <path d="M284,11.0876904 C284,11.0876904 276.687125,14.111606 269.975309,14.4139976 C263.163316,14.7163891 257.353086,14.4139976 249.038448,12.9020398 C237.718519,10.8860961 215.880071,2.72152402 204.259612,7.15660019 C192.639153,11.5916764 192.138272,11.7932707 186.227866,14.6155919 C179.616226,17.8411019 166.192593,24.2921218 149.563316,23.9897302 C131.832099,23.6873387 99.675485,7.25739737 86.4522046,8.06377486 C85.0497354,8.16457205 79.8405644,8.87015235 75.9336861,10.0797186 C72.1269841,11.2892848 66.5171076,13.9100116 58.9037037,14.8171863 C55.69806,15.220375 50.5890653,15.9259553 44.6786596,15.724361 C43.1760141,15.6235638 38.3675485,15.3211722 32.6574956,14.111606 C26.9474427,12.9020398 21.6380952,10.9868932 16.8296296,10.3821101 C10.1169134,9.66077535 5.01536382,10.0913113 2.26974085,10.480268 C0.795046421,10.6891795 0,11.0876904 0,11.0876904 L0,0 L284,0 L284,11.0876904 Z" id="Path"></path>
        </g>
    </g>
</svg>