<svg width="720" height="202" viewBox="0 0 720 202" fill="none" xmlns="http://www.w3.org/2000/svg">
<g clip-path="url(#clip0_11_39)">
<rect width="720" height="202" fill="white"/>
<rect width="1200" height="1200" fill="#FF2D20"/>
<path d="M181.137 154.458C181.137 145.733 180.992 137.734 181.196 129.736C181.283 126.624 180.146 124.588 176.996 122.756C173.817 126.275 170.55 129.881 167.312 133.459C160.254 126.362 153.633 119.76 146.721 112.809C150.192 109.667 153.779 106.41 157.104 103.385C155.529 99.4294 152.992 99.1677 150.133 99.2258C142.725 99.3422 135.317 99.3713 127.908 99.4003C127.5 99.4003 127.092 99.2258 126.012 99.0222C128.812 96.0847 131.233 93.4379 133.8 90.9075C142.375 82.3856 151.067 73.9801 159.525 65.3709C161.537 63.335 163.404 62.4915 166.117 63.335C171.046 64.8474 174.342 63.2477 177.667 59.0886C196.217 35.9369 221.329 24.7392 250 20.3474C253.617 19.7948 257.292 19.5912 261.842 19.1549C260.792 26.0771 260.121 32.4177 258.837 38.6418C255.075 56.8781 248.367 73.951 236.117 88.2608C230.925 94.3396 224.771 99.633 218.85 105.072C217.042 106.73 215.933 108.097 216.75 110.569C218.5 115.746 216.896 119.527 212.783 123.366C202.896 132.557 193.533 142.33 183.937 151.841C183.237 152.597 182.45 153.266 181.137 154.458ZM183.617 119.469C184.55 119.091 185.25 118.8 185.95 118.509C198.287 113.245 208.817 105.392 219.025 96.7827C234.396 83.8399 244.167 67.5814 249.971 48.6471C250.087 48.298 250.437 47.5128 250.117 46.7565C249.708 45.884 248.6 45.5931 248.221 45.5059C245.275 44.7206 241.542 41.8703 239.85 40.1543C238.858 39.1363 236.175 36.3732 235.242 32.9703C235.096 32.4758 234.804 31.2252 233.783 30.7016C232.792 30.2072 231.654 30.7307 231.158 30.8762C209.837 37.2167 192.687 49.4324 179.067 66.8252C172.271 75.5216 166 84.5088 161.829 94.7758C161.421 95.7938 161.537 97.7134 162.208 98.4115C168.683 105.13 175.362 111.645 181.983 118.218C182.479 118.771 183.121 119.12 183.617 119.469ZM168.012 69.9664C165.971 68.9193 164.221 69.3847 162.471 71.2752C159.058 74.9399 155.442 78.4301 151.854 81.9203C148.296 85.3523 144.621 88.6971 141.004 92.1C141.208 92.3909 141.412 92.7108 141.646 93.0016C145.875 93.0016 150.075 93.0598 154.304 92.9435C154.975 92.9144 155.879 92.2745 156.229 91.6637C160.137 84.5379 163.987 77.3539 168.012 69.9664ZM187.467 138.578C187.758 138.665 188.05 138.781 188.342 138.869C195.604 131.568 202.954 124.326 210.071 116.909C211.004 115.95 210.742 113.885 211.062 112.169C203.158 116.415 196.012 120.254 188.896 124.152C188.254 124.501 187.554 125.373 187.525 126.042C187.408 130.201 187.467 134.39 187.467 138.578ZM155.471 112.459C159.787 116.677 163.492 120.312 166.787 123.57C168.742 121.97 170.871 120.225 172.154 119.149C168.304 114.903 164.804 111.034 161.654 107.544C159.496 109.26 157.454 110.889 155.471 112.459ZM254.812 25.8154C249.562 26.7461 245.246 27.5023 240.871 28.2876C240.783 28.433 240.754 28.4912 240.667 28.6366C240.725 29.5382 241.017 33.3484 244.167 36.5186C247.317 39.6598 251.137 39.9507 252.042 40.0088C252.187 39.9216 252.275 39.8634 252.421 39.7762C253.179 35.3843 253.908 31.0216 254.812 25.8154Z" stroke="white" stroke-width="5" stroke-miterlimit="10"/>
<path d="M102.008 181.449C100.783 180.286 99.4125 178.948 98.1292 177.726C115.687 160.217 133.042 142.941 150.542 125.519C151.592 126.915 152.758 128.427 153.867 129.881C137.008 146.663 119.654 163.911 102.008 181.449Z" stroke="white" stroke-width="5" stroke-miterlimit="10"/>
<path d="M155.967 143.609C144.825 154.691 133.683 165.772 122.367 177.028C121.317 175.748 120.092 174.265 118.983 172.927C129.892 162.078 141.004 150.968 152.35 139.683C153.487 140.934 154.771 142.33 155.967 143.609Z" stroke="white" stroke-width="5" stroke-miterlimit="10"/>
<path d="M136.571 123.919C137.767 125.053 139.079 126.333 140.363 127.525C131.7 136.076 123.213 144.453 114.579 152.975C113.675 151.841 112.479 150.357 111.371 148.99C119.392 141.021 127.879 132.557 136.571 123.919Z" stroke="white" stroke-width="5" stroke-miterlimit="10"/>
<path d="M224.537 68.5702C217.537 68.5412 211.938 62.9278 211.938 55.9183C211.938 49.0542 217.8 43.3245 224.742 43.4118C231.508 43.4699 237.167 49.1997 237.167 55.9765C237.196 62.9859 231.567 68.5993 224.537 68.5702ZM224.537 62.317C228.154 62.317 230.925 59.5248 230.896 55.9474C230.867 52.4572 227.921 49.5778 224.421 49.6359C221.037 49.6941 218.267 52.4863 218.208 55.8892C218.121 59.4376 220.95 62.317 224.537 62.317Z" stroke="white" stroke-width="5" stroke-miterlimit="10"/>
<path d="M181.137 154.458C181.137 145.733 180.992 137.734 181.196 129.736C181.283 126.624 180.146 124.588 176.996 122.756C173.817 126.275 170.55 129.881 167.312 133.459C160.254 126.362 153.633 119.76 146.721 112.809C150.192 109.667 153.779 106.41 157.104 103.385C155.529 99.4294 152.992 99.1677 150.133 99.2258C142.725 99.3422 135.317 99.3713 127.908 99.4003C127.5 99.4003 127.092 99.2258 126.012 99.0222C128.812 96.0847 131.233 93.4379 133.8 90.9075C142.375 82.3856 151.067 73.9801 159.525 65.3709C161.537 63.335 163.404 62.4915 166.117 63.335C171.046 64.8474 174.342 63.2477 177.667 59.0886C196.217 35.9369 221.329 24.7392 250 20.3474C253.617 19.7948 257.292 19.5912 261.842 19.1549C260.792 26.0771 260.121 32.4177 258.837 38.6418C255.075 56.8781 248.367 73.951 236.117 88.2608C230.925 94.3396 224.771 99.633 218.85 105.072C217.042 106.73 215.933 108.097 216.75 110.569C218.5 115.746 216.896 119.527 212.783 123.366C202.896 132.557 193.533 142.33 183.937 151.841C183.237 152.597 182.45 153.266 181.137 154.458ZM183.617 119.469C184.55 119.091 185.25 118.8 185.95 118.509C198.287 113.245 208.817 105.392 219.025 96.7827C234.396 83.8399 244.167 67.5814 249.971 48.6471C250.087 48.298 250.437 47.5128 250.117 46.7565C249.708 45.884 248.6 45.5931 248.221 45.5059C245.275 44.7206 241.542 41.8703 239.85 40.1543C238.858 39.1363 236.175 36.3732 235.242 32.9703C235.096 32.4758 234.804 31.2252 233.783 30.7016C232.792 30.2072 231.654 30.7307 231.158 30.8762C209.837 37.2167 192.687 49.4324 179.067 66.8252C172.271 75.5216 166 84.5088 161.829 94.7758C161.421 95.7938 161.537 97.7134 162.208 98.4115C168.683 105.13 175.362 111.645 181.983 118.218C182.479 118.771 183.121 119.12 183.617 119.469ZM168.012 69.9664C165.971 68.9193 164.221 69.3847 162.471 71.2752C159.058 74.9399 155.442 78.4301 151.854 81.9203C148.296 85.3523 144.621 88.6971 141.004 92.1C141.208 92.3909 141.412 92.7108 141.646 93.0016C145.875 93.0016 150.075 93.0598 154.304 92.9435C154.975 92.9144 155.879 92.2745 156.229 91.6637C160.137 84.5379 163.987 77.3539 168.012 69.9664ZM187.467 138.578C187.758 138.665 188.05 138.781 188.342 138.869C195.604 131.568 202.954 124.326 210.071 116.91C211.004 115.95 210.742 113.885 211.062 112.169C203.158 116.415 196.012 120.254 188.896 124.152C188.254 124.501 187.554 125.373 187.525 126.042C187.408 130.201 187.467 134.39 187.467 138.578ZM155.471 112.459C159.787 116.677 163.492 120.312 166.787 123.57C168.742 121.97 170.871 120.225 172.154 119.149C168.304 114.903 164.804 111.034 161.654 107.544C159.496 109.26 157.454 110.889 155.471 112.459ZM254.812 25.8154C249.562 26.7461 245.246 27.5023 240.871 28.2876C240.783 28.433 240.754 28.4912 240.667 28.6366C240.725 29.5382 241.017 33.3484 244.167 36.5186C247.317 39.6598 251.137 39.9507 252.042 40.0088C252.187 39.9216 252.275 39.8634 252.421 39.7762C253.179 35.3843 253.908 31.0216 254.812 25.8154Z" fill="white"/>
<path d="M102.008 181.449C100.783 180.286 99.4125 178.948 98.1292 177.726C115.687 160.217 133.042 142.941 150.542 125.519C151.592 126.915 152.758 128.427 153.867 129.881C137.008 146.663 119.654 163.911 102.008 181.449Z" fill="white"/>
<path d="M155.967 143.609C144.825 154.691 133.683 165.772 122.367 177.028C121.317 175.748 120.092 174.265 118.983 172.927C129.892 162.078 141.004 150.968 152.35 139.683C153.487 140.934 154.771 142.33 155.967 143.609Z" fill="white"/>
<path d="M136.571 123.919C137.767 125.053 139.079 126.333 140.363 127.525C131.7 136.076 123.213 144.453 114.579 152.975C113.675 151.841 112.479 150.357 111.371 148.99C119.392 141.021 127.879 132.557 136.571 123.919Z" fill="white"/>
<path d="M224.537 68.5702C217.537 68.5412 211.938 62.9278 211.938 55.9183C211.938 49.0542 217.8 43.3245 224.742 43.4118C231.508 43.4699 237.167 49.1997 237.167 55.9765C237.196 62.9859 231.567 68.5993 224.537 68.5702ZM224.537 62.317C228.154 62.317 230.925 59.5248 230.896 55.9474C230.867 52.4572 227.921 49.5778 224.421 49.6359C221.037 49.6941 218.267 52.4863 218.208 55.8892C218.121 59.4376 220.95 62.317 224.537 62.317Z" fill="white"/>
<path d="M347.87 83.94V96H306.2V33.63H320.24V83.94H347.87ZM377.858 86.64C379.178 86.64 380.438 86.61 381.638 86.55C382.838 86.49 383.798 86.4 384.518 86.28V76.11C383.978 75.99 383.168 75.87 382.088 75.75C381.008 75.63 380.018 75.57 379.118 75.57C377.858 75.57 376.658 75.66 375.518 75.84C374.438 75.96 373.478 76.23 372.638 76.65C371.798 77.07 371.138 77.64 370.658 78.36C370.178 79.08 369.938 79.98 369.938 81.06C369.938 83.16 370.628 84.63 372.008 85.47C373.448 86.25 375.398 86.64 377.858 86.64ZM376.778 47.4C380.738 47.4 384.038 47.85 386.678 48.75C389.318 49.65 391.418 50.94 392.978 52.62C394.598 54.3 395.738 56.34 396.398 58.74C397.058 61.14 397.388 63.81 397.388 66.75V94.65C395.468 95.07 392.798 95.55 389.378 96.09C385.958 96.69 381.818 96.99 376.958 96.99C373.898 96.99 371.108 96.72 368.588 96.18C366.128 95.64 363.998 94.77 362.198 93.57C360.398 92.31 359.018 90.69 358.058 88.71C357.098 86.73 356.618 84.3 356.618 81.42C356.618 78.66 357.158 76.32 358.238 74.4C359.378 72.48 360.878 70.95 362.738 69.81C364.598 68.67 366.728 67.86 369.128 67.38C371.528 66.84 374.018 66.57 376.598 66.57C378.338 66.57 379.868 66.66 381.188 66.84C382.568 66.96 383.678 67.14 384.518 67.38V66.12C384.518 63.84 383.828 62.01 382.448 60.63C381.068 59.25 378.668 58.56 375.248 58.56C372.968 58.56 370.718 58.74 368.498 59.1C366.278 59.4 364.358 59.85 362.738 60.45L361.028 49.65C361.808 49.41 362.768 49.17 363.908 48.93C365.108 48.63 366.398 48.39 367.778 48.21C369.158 47.97 370.598 47.79 372.098 47.67C373.658 47.49 375.218 47.4 376.778 47.4ZM440.744 60.54C439.544 60.24 438.134 59.94 436.514 59.64C434.894 59.28 433.154 59.1 431.294 59.1C430.454 59.1 429.434 59.19 428.234 59.37C427.094 59.49 426.224 59.64 425.624 59.82V96H412.214V51.18C414.614 50.34 417.434 49.56 420.674 48.84C423.974 48.06 427.634 47.67 431.654 47.67C432.374 47.67 433.244 47.73 434.264 47.85C435.284 47.91 436.304 48.03 437.324 48.21C438.344 48.33 439.364 48.51 440.384 48.75C441.404 48.93 442.274 49.17 442.994 49.47L440.744 60.54ZM470.094 86.64C471.414 86.64 472.674 86.61 473.874 86.55C475.074 86.49 476.034 86.4 476.754 86.28V76.11C476.214 75.99 475.404 75.87 474.324 75.75C473.244 75.63 472.254 75.57 471.354 75.57C470.094 75.57 468.894 75.66 467.754 75.84C466.674 75.96 465.714 76.23 464.874 76.65C464.034 77.07 463.374 77.64 462.894 78.36C462.414 79.08 462.174 79.98 462.174 81.06C462.174 83.16 462.864 84.63 464.244 85.47C465.684 86.25 467.634 86.64 470.094 86.64ZM469.014 47.4C472.974 47.4 476.274 47.85 478.914 48.75C481.554 49.65 483.654 50.94 485.214 52.62C486.834 54.3 487.974 56.34 488.634 58.74C489.294 61.14 489.624 63.81 489.624 66.75V94.65C487.704 95.07 485.034 95.55 481.614 96.09C478.194 96.69 474.054 96.99 469.194 96.99C466.134 96.99 463.344 96.72 460.824 96.18C458.364 95.64 456.234 94.77 454.434 93.57C452.634 92.31 451.254 90.69 450.294 88.71C449.334 86.73 448.854 84.3 448.854 81.42C448.854 78.66 449.394 76.32 450.474 74.4C451.614 72.48 453.114 70.95 454.974 69.81C456.834 68.67 458.964 67.86 461.364 67.38C463.764 66.84 466.254 66.57 468.834 66.57C470.574 66.57 472.104 66.66 473.424 66.84C474.804 66.96 475.914 67.14 476.754 67.38V66.12C476.754 63.84 476.064 62.01 474.684 60.63C473.304 59.25 470.904 58.56 467.484 58.56C465.204 58.56 462.954 58.74 460.734 59.1C458.514 59.4 456.594 59.85 454.974 60.45L453.264 49.65C454.044 49.41 455.004 49.17 456.144 48.93C457.344 48.63 458.634 48.39 460.014 48.21C461.394 47.97 462.834 47.79 464.334 47.67C465.894 47.49 467.454 47.4 469.014 47.4ZM516.177 96C513.117 90 509.997 82.98 506.817 74.94C503.697 66.9 500.727 58.14 497.907 48.66H512.127C512.727 51 513.417 53.55 514.197 56.31C515.037 59.01 515.877 61.77 516.717 64.59C517.617 67.35 518.487 70.05 519.327 72.69C520.227 75.33 521.097 77.73 521.937 79.89C522.717 77.73 523.557 75.33 524.457 72.69C525.357 70.05 526.227 67.35 527.067 64.59C527.967 61.77 528.807 59.01 529.587 56.31C530.427 53.55 531.147 51 531.747 48.66H545.607C542.787 58.14 539.787 66.9 536.607 74.94C533.487 82.98 530.397 90 527.337 96H516.177ZM552.009 72.69C552.009 68.49 552.639 64.83 553.899 61.71C555.219 58.53 556.929 55.89 559.029 53.79C561.129 51.69 563.529 50.1 566.229 49.02C568.989 47.94 571.809 47.4 574.689 47.4C581.409 47.4 586.719 49.47 590.619 53.61C594.519 57.69 596.469 63.72 596.469 71.7C596.469 72.48 596.439 73.35 596.379 74.31C596.319 75.21 596.259 76.02 596.199 76.74H565.779C566.079 79.5 567.369 81.69 569.649 83.31C571.929 84.93 574.989 85.74 578.829 85.74C581.289 85.74 583.689 85.53 586.029 85.11C588.429 84.63 590.379 84.06 591.879 83.4L593.679 94.29C592.959 94.65 591.999 95.01 590.799 95.37C589.599 95.73 588.249 96.03 586.749 96.27C585.309 96.57 583.749 96.81 582.069 96.99C580.389 97.17 578.709 97.26 577.029 97.26C572.769 97.26 569.049 96.63 565.869 95.37C562.749 94.11 560.139 92.4 558.039 90.24C555.999 88.02 554.469 85.41 553.449 82.41C552.489 79.41 552.009 76.17 552.009 72.69ZM583.509 67.56C583.449 66.42 583.239 65.31 582.879 64.23C582.579 63.15 582.069 62.19 581.349 61.35C580.689 60.51 579.819 59.82 578.739 59.28C577.719 58.74 576.429 58.47 574.869 58.47C573.369 58.47 572.079 58.74 570.999 59.28C569.919 59.76 569.019 60.42 568.299 61.26C567.579 62.1 567.009 63.09 566.589 64.23C566.229 65.31 565.959 66.42 565.779 67.56H583.509ZM628.418 96.9C624.518 96.84 621.338 96.42 618.878 95.64C616.478 94.86 614.558 93.78 613.118 92.4C611.738 90.96 610.778 89.25 610.238 87.27C609.758 85.23 609.518 82.95 609.518 80.43V28.32L622.928 26.16V77.73C622.928 78.93 623.018 80.01 623.198 80.97C623.378 81.93 623.708 82.74 624.188 83.4C624.728 84.06 625.478 84.6 626.438 85.02C627.398 85.44 628.688 85.71 630.308 85.83L628.418 96.9ZM323.21 162.29C325.19 162.29 326.81 162.14 328.07 161.84C329.39 161.48 330.44 161.03 331.22 160.49C332 159.89 332.54 159.2 332.84 158.42C333.14 157.64 333.29 156.77 333.29 155.81C333.29 153.77 332.33 152.09 330.41 150.77C328.49 149.39 325.19 147.92 320.51 146.36C318.47 145.64 316.43 144.83 314.39 143.93C312.35 142.97 310.52 141.8 308.9 140.42C307.28 138.98 305.96 137.27 304.94 135.29C303.92 133.25 303.41 130.79 303.41 127.91C303.41 125.03 303.95 122.45 305.03 120.17C306.11 117.83 307.64 115.85 309.62 114.23C311.6 112.61 314 111.38 316.82 110.54C319.64 109.64 322.82 109.19 326.36 109.19C330.56 109.19 334.19 109.64 337.25 110.54C340.31 111.44 342.83 112.43 344.81 113.51L340.76 124.58C339.02 123.68 337.07 122.9 334.91 122.24C332.81 121.52 330.26 121.16 327.26 121.16C323.9 121.16 321.47 121.64 319.97 122.6C318.53 123.5 317.81 124.91 317.81 126.83C317.81 127.97 318.08 128.93 318.62 129.71C319.16 130.49 319.91 131.21 320.87 131.87C321.89 132.47 323.03 133.04 324.29 133.58C325.61 134.06 327.05 134.57 328.61 135.11C331.85 136.31 334.67 137.51 337.07 138.71C339.47 139.85 341.45 141.2 343.01 142.76C344.63 144.32 345.83 146.15 346.61 148.25C347.39 150.35 347.78 152.9 347.78 155.9C347.78 161.72 345.74 166.25 341.66 169.49C337.58 172.67 331.43 174.26 323.21 174.26C320.45 174.26 317.96 174.08 315.74 173.72C313.52 173.42 311.54 173.03 309.8 172.55C308.12 172.07 306.65 171.56 305.39 171.02C304.19 170.48 303.17 169.97 302.33 169.49L306.29 158.33C308.15 159.35 310.43 160.28 313.13 161.12C315.89 161.9 319.25 162.29 323.21 162.29ZM359.933 113.87L373.343 111.71V125.66H389.453V136.82H373.343V153.47C373.343 156.29 373.823 158.54 374.783 160.22C375.803 161.9 377.813 162.74 380.813 162.74C382.253 162.74 383.723 162.62 385.223 162.38C386.783 162.08 388.193 161.69 389.453 161.21L391.343 171.65C389.723 172.31 387.923 172.88 385.943 173.36C383.963 173.84 381.533 174.08 378.653 174.08C374.993 174.08 371.963 173.6 369.563 172.64C367.163 171.62 365.243 170.24 363.803 168.5C362.363 166.7 361.343 164.54 360.743 162.02C360.203 159.5 359.933 156.71 359.933 153.65V113.87ZM419.405 163.64C420.725 163.64 421.985 163.61 423.185 163.55C424.385 163.49 425.345 163.4 426.065 163.28V153.11C425.525 152.99 424.715 152.87 423.635 152.75C422.555 152.63 421.565 152.57 420.665 152.57C419.405 152.57 418.205 152.66 417.065 152.84C415.985 152.96 415.025 153.23 414.185 153.65C413.345 154.07 412.685 154.64 412.205 155.36C411.725 156.08 411.485 156.98 411.485 158.06C411.485 160.16 412.175 161.63 413.555 162.47C414.995 163.25 416.945 163.64 419.405 163.64ZM418.325 124.4C422.285 124.4 425.585 124.85 428.225 125.75C430.865 126.65 432.965 127.94 434.525 129.62C436.145 131.3 437.285 133.34 437.945 135.74C438.605 138.14 438.935 140.81 438.935 143.75V171.65C437.015 172.07 434.345 172.55 430.925 173.09C427.505 173.69 423.365 173.99 418.505 173.99C415.445 173.99 412.655 173.72 410.135 173.18C407.675 172.64 405.545 171.77 403.745 170.57C401.945 169.31 400.565 167.69 399.605 165.71C398.645 163.73 398.165 161.3 398.165 158.42C398.165 155.66 398.705 153.32 399.785 151.4C400.925 149.48 402.425 147.95 404.285 146.81C406.145 145.67 408.275 144.86 410.675 144.38C413.075 143.84 415.565 143.57 418.145 143.57C419.885 143.57 421.415 143.66 422.735 143.84C424.115 143.96 425.225 144.14 426.065 144.38V143.12C426.065 140.84 425.375 139.01 423.995 137.63C422.615 136.25 420.215 135.56 416.795 135.56C414.515 135.56 412.265 135.74 410.045 136.1C407.825 136.4 405.905 136.85 404.285 137.45L402.575 126.65C403.355 126.41 404.315 126.17 405.455 125.93C406.655 125.63 407.945 125.39 409.325 125.21C410.705 124.97 412.145 124.79 413.645 124.67C415.205 124.49 416.765 124.4 418.325 124.4ZM482.291 137.54C481.091 137.24 479.681 136.94 478.061 136.64C476.441 136.28 474.701 136.1 472.841 136.1C472.001 136.1 470.981 136.19 469.781 136.37C468.641 136.49 467.771 136.64 467.171 136.82V173H453.761V128.18C456.161 127.34 458.981 126.56 462.221 125.84C465.521 125.06 469.181 124.67 473.201 124.67C473.921 124.67 474.791 124.73 475.811 124.85C476.831 124.91 477.851 125.03 478.871 125.21C479.891 125.33 480.911 125.51 481.931 125.75C482.951 125.93 483.821 126.17 484.541 126.47L482.291 137.54ZM493.98 113.87L507.39 111.71V125.66H523.5V136.82H507.39V153.47C507.39 156.29 507.87 158.54 508.83 160.22C509.85 161.9 511.86 162.74 514.86 162.74C516.3 162.74 517.77 162.62 519.27 162.38C520.83 162.08 522.24 161.69 523.5 161.21L525.39 171.65C523.77 172.31 521.97 172.88 519.99 173.36C518.01 173.84 515.58 174.08 512.7 174.08C509.04 174.08 506.01 173.6 503.61 172.64C501.21 171.62 499.29 170.24 497.85 168.5C496.41 166.7 495.39 164.54 494.79 162.02C494.25 159.5 493.98 156.71 493.98 153.65V113.87ZM533.113 149.69C533.113 145.49 533.743 141.83 535.002 138.71C536.323 135.53 538.033 132.89 540.133 130.79C542.233 128.69 544.633 127.1 547.333 126.02C550.093 124.94 552.913 124.4 555.793 124.4C562.513 124.4 567.823 126.47 571.723 130.61C575.623 134.69 577.573 140.72 577.573 148.7C577.573 149.48 577.543 150.35 577.483 151.31C577.423 152.21 577.363 153.02 577.303 153.74H546.883C547.183 156.5 548.473 158.69 550.753 160.31C553.033 161.93 556.093 162.74 559.933 162.74C562.393 162.74 564.793 162.53 567.133 162.11C569.533 161.63 571.483 161.06 572.983 160.4L574.783 171.29C574.063 171.65 573.103 172.01 571.903 172.37C570.703 172.73 569.353 173.03 567.853 173.27C566.413 173.57 564.853 173.81 563.173 173.99C561.493 174.17 559.813 174.26 558.133 174.26C553.873 174.26 550.153 173.63 546.973 172.37C543.853 171.11 541.243 169.4 539.143 167.24C537.103 165.02 535.573 162.41 534.553 159.41C533.593 156.41 533.113 153.17 533.113 149.69ZM564.613 144.56C564.553 143.42 564.343 142.31 563.983 141.23C563.683 140.15 563.173 139.19 562.453 138.35C561.793 137.51 560.923 136.82 559.843 136.28C558.823 135.74 557.533 135.47 555.973 135.47C554.473 135.47 553.183 135.74 552.103 136.28C551.023 136.76 550.123 137.42 549.403 138.26C548.683 139.1 548.113 140.09 547.693 141.23C547.333 142.31 547.063 143.42 546.883 144.56H564.613ZM619.151 137.54C617.951 137.24 616.541 136.94 614.921 136.64C613.301 136.28 611.561 136.1 609.701 136.1C608.861 136.1 607.841 136.19 606.641 136.37C605.501 136.49 604.631 136.64 604.031 136.82V173H590.621V128.18C593.021 127.34 595.841 126.56 599.081 125.84C602.381 125.06 606.041 124.67 610.061 124.67C610.781 124.67 611.651 124.73 612.671 124.85C613.691 124.91 614.711 125.03 615.731 125.21C616.751 125.33 617.771 125.51 618.791 125.75C619.811 125.93 620.681 126.17 621.401 126.47L619.151 137.54Z" fill="white"/>
</g>
<defs>
<clipPath id="clip0_11_39">
<rect width="720" height="202" fill="white"/>
</clipPath>
</defs>
</svg>
